<?xml version="1.0" encoding="UTF-8" standalone="no"?>
<svg
   xmlns:dc="http://purl.org/dc/elements/1.1/"
   xmlns:cc="http://creativecommons.org/ns#"
   xmlns:rdf="http://www.w3.org/1999/02/22-rdf-syntax-ns#"
   xmlns:svg="http://www.w3.org/2000/svg"
   xmlns="http://www.w3.org/2000/svg"
   viewBox="0 0 974.42499 294.75"
   height="294.75"
   width="974.42499"
   xml:space="preserve"
   version="1.1"
   id="svg3355"><metadata
     id="metadata3361"><rdf:RDF><cc:Work
         rdf:about=""><dc:format>image/svg+xml</dc:format><dc:type
           rdf:resource="http://purl.org/dc/dcmitype/StillImage" /><dc:title></dc:title></cc:Work></rdf:RDF></metadata><defs
     id="defs3359" /><g
     transform="matrix(1.25,0,0,-1.25,0,294.75)"
     id="g3363"><g
       transform="scale(0.1,0.1)"
       id="g3365"><path
         id="path3367"
         style="fill:#231f20;fill-opacity:1;fill-rule:nonzero;stroke:none"
         d="m 182.969,529.211 c -22.735,20.398 -37.031,27.738 -54.375,27.738 -36.8752,0 -62.1096,-33.129 -62.1096,-81.168 0,-42.5 9.2187,-60.781 69.6096,-134.609 C 190.547,272.891 206.953,232.34 206.953,166.09 206.953,66.3203 160.234,0 89.0625,0 60.0781,0 37.8125,9.21094 16.0938,29.4492 l 0,82.1918 C 42.5,87.4219 60.0781,79.2109 81.7188,79.2109 c 36.1722,0 58.9062,32.4301 58.9062,83.9881 0,44.223 -12.891,73.672 -57.2656,126.09 C 14.5313,372.34 0,403.82 0,473.898 c 0,96.801 43.9844,157.891 114.141,157.891 27.968,0 44.062,-4.68 68.828,-21.25 l 0,-81.328" /><path
         id="path3369"
         style="fill:#231f20;fill-opacity:1;fill-rule:nonzero;stroke:none"
         d="m 396.406,290.309 c -8.047,55.55 -18.75,150.472 -24.218,213.121 -6.563,-81.09 -14.141,-139.141 -28.672,-232.418 l -12.735,-79.301 80.86,0 -15.235,98.598 z m 3.203,332.972 107.813,-615.08178 -66.953,0 -18.906,119.83978 -99.844,0 -19.688,-119.83978 -65,0 109.532,615.08178 53.046,0" /><path
         id="path3371"
         style="fill:#231f20;fill-opacity:1;fill-rule:nonzero;stroke:none"
         d="m 612.891,623.281 68.281,-245.242 c 18.125,-67.34 37.031,-149.367 51.25,-222.18 -6.172,53.282 -8.516,76.481 -10.391,101.321 -2.5,35.789 -5.547,105.082 -5.547,136.57 l 0,229.531 67.969,0 0,-615.08178 -63.437,0 -76.172,276.72278 c -2.969,12.887 -12.891,50.699 -19.61,79.367 -5.312,22.109 -5.859,24.77 -16.718,85.711 -1.328,6.25 -3.516,17.422 -5.86,31.172 2.891,-26.801 2.344,-23.832 3.828,-50.703 2.891,-55.16 1.407,-25.629 4.375,-91.957 2.032,-33.364 1.485,-28.832 2.032,-62.114 l 3.828,-268.19878 -66.953,0 0,615.08178 63.125,0" /><path
         id="path3373"
         style="fill:#231f20;fill-opacity:1;fill-rule:nonzero;stroke:none"
         d="m 1075.79,80.1484 c 81.48,0 104.29,49.0626 104.29,223.9106 0,190 -22.81,249.222 -96.79,249.222 l -7.5,0 0,-473.1326 z m 14.92,543.1326 c 59.22,0 88.67,-14.691 114.84,-56.41 32.42,-51.723 45.31,-124.371 45.31,-257.191 0,-132.731 -14.21,-206.559 -48.2,-252.5706 -26.95,-35 -65.62,-48.91018 -139.76,-48.91018 l -55.08,0 0,615.08178 82.89,0" /><path
         id="path3375"
         style="fill:#231f20;fill-opacity:1;fill-rule:nonzero;stroke:none"
         d="m 1321.33,8.19922 67.6602,0 0,615.082 -67.6602,0 0,-615.082 z" /><path
         id="path3377"
         style="fill:#231f20;fill-opacity:1;fill-rule:nonzero;stroke:none"
         d="m 1650.32,623.281 0,-70 -112.5,0 0,-195.472 99.61,0 0,-70.161 -99.61,0 0,-209.4488 112.5,0 0,-69.99998 -180.32,0 0,615.08178 180.32,0" /><path
         id="path3379"
         style="fill:#231f20;fill-opacity:1;fill-rule:nonzero;stroke:none"
         d="m 1959.07,331.949 c 0,-63.59 0,-73.828 -0.86,-100.551 C 1952.04,60.9297 1921.18,0 1838.99,0 1742.43,0 1705.4,86.5586 1705.4,313.43 c 0,132.89 12.03,219.461 35.46,261.8 21.18,37.809 51.25,56.559 92.82,56.559 67.11,0 101.25,-35.309 121.64,-126.398 l -63.44,-32.582 c -10.7,64.613 -24.77,86.011 -57.42,86.011 -46.02,0 -58.75,-54.449 -58.75,-245.39 0,-181.719 13.75,-237.1097 59.45,-237.1097 43.99,0 59.77,40.7107 59.77,156.0197 l 0,29.371 -58.91,0 0,70.238 123.05,0" /><path
         id="path3381"
         style="fill:#231f20;fill-opacity:1;fill-rule:nonzero;stroke:none"
         d="m 2101.65,507.969 c -8.36,-31.489 -11.18,-82.899 -11.18,-202.821 0,-175.386 14.22,-228.8277 60.24,-228.8277 28.51,0 45.23,21.3281 51.95,68.3597 4.61,34.14 7.66,87.66 7.66,148.289 0,124.761 -5.32,199.371 -15.94,227.812 -8.83,24.141 -23.2,36.168 -42.81,36.168 -24.92,0 -40.16,-14.84 -49.92,-48.98 z m 179.68,-197.27 C 2281.33,83.75 2246.8,0 2153.6,0 c -99.61,0 -134.3,85.5391 -134.3,330 0,218.59 35.47,301.789 129.38,301.789 98.12,0 132.65,-85.148 132.65,-321.09" /><path
         id="path3383"
         style="fill:#231f20;fill-opacity:1;fill-rule:nonzero;stroke:none"
         d="m 2662.5,529.211 c -22.81,20.398 -37.03,27.738 -54.37,27.738 -37.03,0 -61.95,-33.129 -61.95,-81.168 0,-42.5 9.22,-60.781 69.45,-134.609 54.53,-68.281 70.94,-108.832 70.94,-175.082 C 2686.57,66.3203 2639.69,0 2568.76,0 c -29.3,0 -51.26,9.21094 -72.97,29.4492 l 0,82.1918 c 26.09,-24.2191 43.67,-32.4301 65.62,-32.4301 36.09,0 58.75,32.4301 58.75,83.9881 0,44.223 -12.73,73.672 -57.26,126.09 -68.68,83.051 -83.21,114.531 -83.21,184.609 0,96.801 44.07,157.891 114.3,157.891 27.97,0 43.59,-4.68 68.51,-21.25 l 0,-81.328" /><path
         id="path3385"
         style="fill:#231f20;fill-opacity:1;fill-rule:nonzero;stroke:none"
         d="m 2813.36,623.281 0,-434.301 c 0,-35.941 1.8,-57.269 3.83,-70.941 4.53,-25.0702 21.96,-39.8398 45.39,-39.8398 40.63,0 49.69,18.4414 49.69,98.7498 l 0,446.332 66.33,0 0,-446.332 C 2978.6,46.0117 2948.44,0 2863.21,0 c -52.74,0 -87.5,22.1094 -103.99,68.1211 -9.14,23.9883 -12.34,55.3089 -12.34,120.8589 l 0,434.301 66.48,0" /><path
         id="path3387"
         style="fill:#231f20;fill-opacity:1;fill-rule:nonzero;stroke:none"
         d="m 3132.74,352.109 c 48.2,0 67.97,27.731 67.97,94.922 0,71.949 -20.55,106.25 -62.89,106.25 l -11.1,0 0,-201.172 6.02,0 z m 15.08,271.172 c 85.39,0 123.2,-50.711 123.2,-165.082 0,-131.879 -36.95,-177.109 -144.3,-177.109 l 0,-272.89078 -68.12,0 0,615.08178 89.22,0" /><path
         id="path3389"
         style="fill:#231f20;fill-opacity:1;fill-rule:nonzero;stroke:none"
         d="m 3507.11,623.281 0,-70 -112.5,0 0,-195.472 99.46,0 0,-70.161 -99.46,0 0,-209.4488 112.5,0 0,-69.99998 -180.46,0 0,615.08178 180.46,0" /><path
         id="path3391"
         style="fill:#231f20;fill-opacity:1;fill-rule:nonzero;stroke:none"
         d="m 3639.85,350.23 c 52.73,1.02 72.81,26.95 72.81,96.801 0,78.438 -16.72,107.969 -61.95,107.969 l -10.86,0 0,-204.77 z m 21.41,273.051 c 79.06,0 117.18,-50.711 117.18,-157.742 0,-89.367 -25.23,-145.617 -69.61,-158.508 l 91.88,-298.83178 -68.6,0 -92.26,300.55078 0,-300.55078 -67.81,0 0,615.08178 89.22,0" /><path
         id="path3393"
         style="fill:#231f20;fill-opacity:1;fill-rule:nonzero;stroke:none"
         d="m 4046.8,538.43 c -19.61,12.039 -30.31,15.711 -42.81,15.711 -64.45,0 -92.81,-75.711 -92.81,-243.442 0,-155.699 30.7,-230.5506 95.62,-230.5506 14.38,0 23.44,2.7422 40,12.8204 l 0,-75.5469 C 4028.05,3.51172 4015.86,0 3993.21,0 c -103.44,0 -154.14,100.469 -154.14,305.148 0,220.321 49.37,326.641 151.33,326.641 22.26,0 34.53,-3.98 56.4,-18.75 l 0,-74.609" /><path
         id="path3395"
         style="fill:#231f20;fill-opacity:1;fill-rule:nonzero;stroke:none"
         d="m 4175.16,507.969 c -7.89,-31.489 -11.09,-82.899 -11.09,-202.821 0,-175.386 14.29,-228.8277 60.31,-228.8277 28.75,0 45.16,21.3281 52.19,68.3597 4.37,34.14 7.26,87.66 7.26,148.289 0,124.761 -5.23,199.371 -15.78,227.812 -9.06,24.141 -23.44,36.168 -43.05,36.168 -24.6,0 -40.15,-14.84 -49.84,-48.98 z m 179.61,-197.27 C 4354.77,83.75 4320.24,0 4227.35,0 c -99.61,0 -134.22,85.5391 -134.22,330 0,218.59 35.16,301.789 128.91,301.789 98.2,0 132.73,-85.148 132.73,-321.09" /><path
         id="path3397"
         style="fill:#231f20;fill-opacity:1;fill-rule:nonzero;stroke:none"
         d="m 4507.43,623.281 43.59,-250.941 c 9.14,-50.551 9.69,-52.418 16.17,-102.27 7.27,-53.59 8.75,-67.34 11.1,-91.25 1.48,16.571 0.86,10.16 4.68,39.61 8.52,61.64 4.46,32.351 12.03,91.25 4.69,30.468 2.04,17.66 5.24,37.89 l 2.97,14.692 2.34,14.918 39.22,246.101 58.91,0 46.87,-615.08178 -65.62,0 -11.72,208.28078 c 0,2.809 -0.55,22.27 -1.41,47.032 -3.59,109.847 -2.11,57.269 -4.45,157.738 0,1.09 0,5.621 -0.55,10.309 -5.31,-41.637 -7.65,-60.938 -10,-77.5 -11.4,-73.989 -7.58,-48.911 -12.03,-77.661 l -42.42,-268.19878 -45.39,0 -39.61,232.33978 c -9.38,53.441 -20.47,132.82 -26.64,191.02 L 4471.1,8.19922 l -63.28,0 41.56,615.08178 58.05,0" /><path
         id="path3399"
         style="fill:#231f20;fill-opacity:1;fill-rule:nonzero;stroke:none"
         d="m 4882.74,352.109 c 47.97,0 67.97,27.731 67.97,94.922 0,71.949 -20.55,106.25 -63.05,106.25 l -11.09,0 0,-201.172 6.17,0 z m 14.92,271.172 c 85.24,0 123.05,-50.711 123.05,-165.082 0,-131.879 -36.95,-177.109 -144.14,-177.109 l 0,-272.89078 -67.97,0 0,615.08178 89.06,0" /><path
         id="path3401"
         style="fill:#231f20;fill-opacity:1;fill-rule:nonzero;stroke:none"
         d="m 5142.9,623.281 0,-434.301 c 0,-35.941 1.4,-57.269 3.75,-70.941 4.68,-25.0702 22.03,-39.8398 45.46,-39.8398 40.71,0 49.77,18.4414 49.77,98.7498 l 0,446.332 66.17,0 0,-446.332 C 5308.05,46.0117 5278.21,0 5192.97,0 c -53.36,0 -87.89,22.1094 -104.29,68.1211 -9.07,23.9883 -12.03,55.3089 -12.03,120.8589 l 0,434.301 66.25,0" /><path
         id="path3403"
         style="fill:#231f20;fill-opacity:1;fill-rule:nonzero;stroke:none"
         d="m 5569.46,623.281 0,-72.812 -76.25,0 0,-542.26978 -66.17,0 0,542.26978 -78.52,0 0,72.812 220.94,0" /><path
         id="path3405"
         style="fill:#231f20;fill-opacity:1;fill-rule:nonzero;stroke:none"
         d="m 5790,623.281 0,-70 -112.5,0 0,-195.472 99.3,0 0,-70.161 -99.3,0 0,-209.4488 112.5,0 0,-69.99998 -180.7,0 0,615.08178 180.7,0" /><path
         id="path3407"
         style="fill:#231f20;fill-opacity:1;fill-rule:nonzero;stroke:none"
         d="m 5922.74,350.23 c 52.73,1.02 72.34,26.95 72.34,96.801 0,78.438 -16.72,107.969 -61.79,107.969 l -10.55,0 0,-204.77 z m 21.09,273.051 c 79.07,0 116.88,-50.711 116.88,-157.742 0,-89.367 -24.85,-145.617 -69.38,-158.508 l 91.96,-298.83178 -68.29,0 -92.26,300.55078 0,-300.55078 -68.28,0 0,615.08178 89.37,0" /><path
         id="path3409"
         style="fill:#231f20;fill-opacity:1;fill-rule:nonzero;stroke:none"
         d="m 6480.55,538.43 c -19.92,12.039 -30.15,15.711 -43.05,15.711 -64.14,0 -92.57,-75.711 -92.57,-243.442 0,-155.699 30.78,-230.5506 95.78,-230.5506 14.06,0 23.12,2.7422 39.84,12.8204 l 0,-75.5469 C 6461.8,3.51172 6449.46,0 6426.65,0 c -103.13,0 -153.83,100.469 -153.83,305.148 0,220.321 49.22,326.641 151.17,326.641 22.58,0 34.61,-3.98 56.56,-18.75 l 0,-74.609" /><path
         id="path3411"
         style="fill:#231f20;fill-opacity:1;fill-rule:nonzero;stroke:none"
         d="m 6720.79,623.281 0,-70 -112.82,0 0,-195.472 99.93,0 0,-70.161 -99.93,0 0,-209.4488 112.82,0 0,-69.99998 -180.79,0 0,615.08178 180.79,0" /><path
         id="path3413"
         style="fill:#231f20;fill-opacity:1;fill-rule:nonzero;stroke:none"
         d="m 6848.83,623.281 67.97,-245.242 c 17.81,-67.34 36.88,-149.367 51.25,-222.18 -6.17,53.282 -8.2,76.481 -10.55,101.321 -2.34,35.789 -5.23,105.082 -5.23,136.57 l 0,229.531 67.97,0 0,-615.08178 -63.28,0 -76.25,276.72278 c -3.21,12.887 -12.81,50.699 -20.16,79.367 -5,22.109 -5.62,24.77 -16.09,85.711 -1.49,6.25 -4.14,17.422 -6.17,31.172 2.89,-26.801 2.03,-23.832 3.82,-50.703 2.89,-55.16 1.41,-25.629 4.38,-91.957 2.34,-33.364 1.72,-28.832 2.34,-62.114 l 3.75,-268.19878 -67.03,0 0,615.08178 63.28,0" /><path
         id="path3415"
         style="fill:#231f20;fill-opacity:1;fill-rule:nonzero;stroke:none"
         d="m 7281.49,623.281 0,-72.812 -76.41,0 0,-542.26978 -66.56,0 0,542.26978 -78.44,0 0,72.812 221.41,0" /><path
         id="path3417"
         style="fill:#231f20;fill-opacity:1;fill-rule:nonzero;stroke:none"
         d="m 7501.8,623.281 0,-70 -112.5,0 0,-195.472 99.69,0 0,-70.161 -99.69,0 0,-209.4488 112.5,0 0,-69.99998 -180.7,0 0,615.08178 180.7,0" /><path
         id="path3419"
         style="fill:#231f20;fill-opacity:1;fill-rule:nonzero;stroke:none"
         d="m 7634.54,350.23 c 53.04,1.02 72.42,26.95 72.42,96.801 0,78.438 -16.41,107.969 -61.88,107.969 l -10.54,0 0,-204.77 z m 21.09,273.051 c 79.14,0 116.95,-50.711 116.95,-157.742 0,-89.367 -24.92,-145.617 -69.22,-158.508 l 92.04,-298.83178 -68.6,0 -92.26,300.55078 0,-300.55078 -67.66,0 0,615.08178 88.75,0" /><path
         id="path3421"
         style="fill:#231f20;fill-opacity:1;fill-rule:nonzero;stroke:none"
         d="m 6045.24,972.031 c -577.81,0 -651.56,430.079 -651.56,709.139 0,222.5 34.53,592.58 459.37,592.58 327.19,0 432.66,-194.53 466.95,-315.86 l 65.94,0 -23.44,339.69 c -116.32,25.94 -295.62,60.39 -506.87,60.39 -564.84,0 -723.36,-293.99 -723.36,-694.06 0,-460.55 253.44,-789.23 781.09,-789.23 153.52,0 277.43,12.109 386.1,36.019 l 0,89.921 c -60.63,-15.229 -140.31,-28.589 -254.22,-28.589" /><path
         id="path3423"
         style="fill:#231f20;fill-opacity:1;fill-rule:nonzero;stroke:none"
         d="m 2031.02,1672.58 c -241.25,110.23 -570.86,173.12 -570.86,365.47 0,142.65 163.36,235.7 348.91,235.7 296.48,0 407.58,-133.91 432.42,-248.75 l 69.3,0 -19.3,296.48 c -124.69,19.15 -243.75,36.49 -429.69,36.49 -349.06,0 -623.59,-105.94 -623.59,-365.31 0,-138.6 58.51,-216.41 180.39,-289.61 257.81,-153.83 717.58,-225 717.58,-458.52 0,-149.46 -157.74,-272.499 -401.8,-272.499 -25.78,0 -90.08,-1.562 -113.36,0.309 -119.53,15.082 -249.45,66.48 -352.19,138.28 l 0,-161.409 c 100.55,-30.781 232.66,-69.141 443.6,-74.531 379.53,-9.68 684.37,129.77 684.37,404.38 0,205.55 -146.8,294.14 -365.78,393.52" /><path
         id="path3425"
         style="fill:#231f20;fill-opacity:1;fill-rule:nonzero;stroke:none"
         d="m 2834.77,1162.5 c 0,-158.05 21.41,-181.961 153.05,-181.961 454.14,0 641.48,199.071 641.48,633.681 0,397.89 -139.76,637.81 -641.48,637.81 -131.64,0 -153.05,-13.05 -153.05,-181.64 l 0,-907.89 z m -234.69,-45.71 0,999.15 c 0,162.19 -87.26,177.11 -229.68,177.11 l 0,43.36 617.42,0 c 438.44,0 902.81,-77.82 902.81,-722.19 0,-642.189 -488.36,-717.9 -902.81,-717.9 l -385.94,0 -1.8,220.47" /><path
         id="path3427"
         style="fill:#231f20;fill-opacity:1;fill-rule:nonzero;stroke:none"
         d="m 4735.94,1672.58 c -241.17,110.23 -571.01,173.12 -571.01,365.47 0,142.65 163.43,235.7 349.22,235.7 296.48,0 407.18,-133.91 432.42,-248.75 l 69.14,0 -19.38,296.48 c -124.76,19.15 -243.98,36.49 -429.45,36.49 -349.22,0 -623.83,-105.94 -623.83,-365.31 0,-138.6 58.44,-216.41 180.31,-289.61 257.82,-153.83 717.74,-225 717.74,-458.52 0,-149.46 -157.89,-272.499 -401.64,-272.499 -25.78,0 -90.24,-1.562 -113.67,0.309 -119.3,15.082 -249.38,66.48 -352.11,138.28 l 0,-161.409 c 100.62,-30.781 232.81,-69.141 443.51,-74.531 379.69,-9.68 684.38,129.77 684.38,404.38 0,205.55 -147.11,294.14 -365.63,393.52" /></g></g></svg>