<?xml version="1.0" encoding="UTF-8" standalone="no"?>
<svg
   xmlns:dc="http://purl.org/dc/elements/1.1/"
   xmlns:cc="http://creativecommons.org/ns#"
   xmlns:rdf="http://www.w3.org/1999/02/22-rdf-syntax-ns#"
   xmlns:svg="http://www.w3.org/2000/svg"
   xmlns="http://www.w3.org/2000/svg"
   viewBox="0 0 366.63751 68.337502"
   height="68.337502"
   width="366.63751"
   xml:space="preserve"
   version="1.1"
   id="svg3567"><metadata
     id="metadata3573"><rdf:RDF><cc:Work
         rdf:about=""><dc:format>image/svg+xml</dc:format><dc:type
           rdf:resource="http://purl.org/dc/dcmitype/StillImage" /><dc:title></dc:title></cc:Work></rdf:RDF></metadata><defs
     id="defs3571" /><g
     transform="matrix(1.25,0,0,-1.25,0,68.3375)"
     id="g3575"><g
       transform="scale(0.1,0.1)"
       id="g3577"><path
         id="path3579"
         style="fill:#112552;fill-opacity:1;fill-rule:nonzero;stroke:none"
         d="m 350.648,265 c 0,-86.707 -12.66,-152.535 -144.308,-152.535 C 75.3242,112.465 55.0703,175.758 55.0703,265 l 0,210.766 c 0,47.472 -20.2539,51.906 -55.0703,51.906 l 0,12.656 166.465,0 0,-12.656 c -34.18,0 -55.07,-4.434 -55.07,-51.906 l 0,-210.766 c 0,-64.555 15.199,-127.852 97.476,-127.852 91.145,0 105.699,52.536 105.699,127.852 l 0,210.766 c 0,47.472 -20.886,51.906 -55.062,51.906 l 0,12.656 146.207,0 0,-12.656 c -34.813,0 -55.067,-4.434 -55.067,-51.906 l 0,-210.766" /><path
         id="path3581"
         style="fill:#112552;fill-opacity:1;fill-rule:nonzero;stroke:none"
         d="m 700.691,129.555 c -31.011,-11.395 -66.457,-17.09 -113.293,-17.09 -126.585,0 -187.347,96.207 -187.347,231.019 0,117.098 37.972,203.172 173.422,203.172 50.632,0 93.672,-10.129 121.523,-17.722 l 5.695,-99.368 -15.824,0 c -8.226,35.442 -33.543,92.407 -112.031,92.407 -101.898,0 -110.133,-108.235 -110.133,-173.422 0,-81.653 17.727,-207.606 156.34,-207.606 42.406,0 65.191,9.493 81.648,15.828 l 0,-27.218" /><path
         id="path3583"
         style="fill:#112552;fill-opacity:1;fill-rule:nonzero;stroke:none"
         d="m 1040.62,449.184 c -5.7,33.546 -31.02,72.789 -98.741,72.789 -42.406,0 -79.75,-27.219 -79.75,-68.989 0,-56.336 75.316,-74.687 130.387,-106.968 49.994,-29.114 83.544,-55.063 83.544,-115.192 0,-80.386 -69.62,-118.359 -156.333,-118.359 -43.043,0 -93.043,9.492 -108.868,12.027 l -4.429,89.242 15.828,0 c 5.055,-33.543 34.808,-72.789 102.531,-72.789 55.699,0 91.771,36.082 91.771,79.754 0,68.352 -105.06,89.242 -163.923,134.18 -27.852,21.516 -41.145,44.305 -41.145,84.812 0,75.954 62.664,106.965 142.414,106.965 42.403,0 69.624,-5.058 98.104,-10.758 l 4.43,-86.714 -15.82,0" /><path
         id="path3585"
         style="fill:#112552;fill-opacity:1;fill-rule:nonzero;stroke:none"
         d="m 1251.41,243.789 c -26.47,-0.562 -98.54,-5.629 -98.54,-57.992 0,-29.277 19.15,-48.984 38.29,-48.984 36.6,0 60.25,35.472 60.25,73.757 l 0,33.219 z m 83.33,-125.559 c -6.76,-1.687 -20.83,-5.066 -41.11,-5.066 -32.65,0 -42.22,16.891 -42.22,41.102 l -1.13,0 c -17.45,-25.336 -41.67,-41.102 -79.95,-41.102 -38.86,0 -67.57,27.027 -67.57,63.621 0,81.649 105.85,81.649 148.65,85.59 l 0,21.395 c 0,39.41 -0.57,81.078 -47.87,81.078 -34.9,0 -39.4,-14.645 -39.4,-32.66 0,-23.083 -16.9,-29.278 -26.47,-29.278 -15.2,0 -27.03,10.137 -27.03,25.336 0,36.602 54.62,55.18 93.47,55.18 77.14,0 91.21,-37.16 91.21,-89.524 l 0,-139.636 c 0,-19.707 6.76,-26.465 24.22,-26.465 5.06,0 10.13,1.129 15.2,2.254 l 0,-11.825" /><path
         id="path3587"
         style="fill:#112552;fill-opacity:1;fill-rule:nonzero;stroke:none"
         d="m 1347.1,128.363 c 23.65,0 42.79,5.071 42.79,41.664 l 0,153.719 c 0,33.777 -26.46,35.469 -42.79,36.598 l 0,9.566 86.71,13.516 0,-74.321 1.13,0 c 7.88,20.833 33.21,74.321 88.96,74.321 59.68,0 65.31,-32.656 65.31,-85.02 l 0,-128.379 c 0,-36.593 19.14,-41.664 42.79,-41.664 l 0,-9.57 -129.5,0 0,9.57 c 23.65,0 42.79,5.071 42.79,41.664 l 0,115.993 c 0,48.421 -0.56,70.382 -37.72,70.382 -33.22,0 -73.76,-63.625 -73.76,-117.117 l 0,-69.258 c 0,-36.593 19.14,-41.664 42.79,-41.664 l 0,-9.57 -129.5,0 0,9.57" /><path
         id="path3589"
         style="fill:#112552;fill-opacity:1;fill-rule:nonzero;stroke:none"
         d="m 1807.85,196.645 c 0,-46.207 5.07,-53.168 36.71,-53.168 108.87,0 153.81,58.234 153.81,185.453 0,116.457 -33.56,186.715 -153.81,186.715 -31.64,0 -36.71,-3.801 -36.71,-53.168 l 0,-265.832 z m -111.39,-65.196 c 34.17,0 55.06,4.434 55.06,51.906 l 0,292.411 c 0,47.472 -20.89,51.906 -55.06,51.906 l 0,12.656 148.1,0 c 105.07,0 216.47,-22.785 216.47,-211.398 0,-187.985 -117.09,-210.137 -216.47,-210.137 l -148.1,0 0,12.656" /><path
         id="path3591"
         style="fill:#112552;fill-opacity:1;fill-rule:nonzero;stroke:none"
         d="m 2115.04,467.32 c 0,18.016 14.07,32.094 32.09,32.094 18.02,0 32.1,-14.078 32.1,-32.094 0,-18.019 -14.08,-32.09 -32.1,-32.09 -18.02,0 -32.09,14.071 -32.09,32.09 z m -30.97,-338.957 c 23.64,0 42.8,5.071 42.8,41.664 l 0,153.719 c 0,33.777 -25.91,35.469 -42.8,36.598 l 0,9.566 86.71,13.516 0,-213.399 c 0,-36.593 19.14,-41.664 42.79,-41.664 l 0,-9.57 -129.5,0 0,9.57" /><path
         id="path3593"
         style="fill:#112552;fill-opacity:1;fill-rule:nonzero;stroke:none"
         d="m 2374.59,296.152 c 0,29.844 -10.14,68.696 -53.49,68.696 -42.79,0 -60.24,-47.86 -60.24,-68.696 l 113.73,0 z m 42.79,-172.855 c -13.51,-5.067 -32.65,-10.133 -67,-10.133 -87.27,0 -136.26,47.856 -136.26,142.449 0,82.207 33.22,127.813 114.3,127.813 50.67,0 96.29,-28.153 96.29,-93.465 l 0,-12.387 -163.85,0 c 0,-47.297 23.09,-143.582 117.11,-143.582 12.95,0 28.15,1.692 39.41,7.321 l 0,-18.016" /><path
         id="path3595"
         style="fill:#112552;fill-opacity:1;fill-rule:nonzero;stroke:none"
         d="m 2559.25,221.832 c 47.29,0 53.48,37.16 53.48,67 0,42.231 -14.63,76.016 -55.17,76.016 -44.48,0 -52.93,-32.66 -52.93,-65.317 0,-42.789 14.08,-77.699 54.62,-77.699 z m -48.99,-97.969 c -11.26,-8.449 -27.02,-18.019 -27.02,-43.3552 0,-33.2226 29.84,-61.9336 78.82,-61.9336 51.24,0 98.54,26.4649 98.54,66.9922 0,28.7266 -23.65,38.2966 -51.8,38.2966 l -98.54,0 z m 97.42,39.977 c 27.02,0 89.52,-1.129 89.52,-63.637 C 2697.2,36.0352 2634.13,0 2559.25,0 c -55.18,0 -112.61,20.8203 -112.61,71.5039 0,34.9021 25.9,50.1051 43.92,59.1171 -9.57,5.629 -24.21,16.328 -24.21,39.973 0,20.832 18.02,42.226 24.21,48.984 -12.95,10.699 -32.66,27.59 -32.66,75.449 0,72.633 52.93,88.399 106.42,88.399 25.89,0 39.98,-4.504 57.99,-14.074 9.01,21.394 22.52,60.242 56.87,60.242 15.76,0 27.02,-10.129 27.02,-27.02 0,-15.207 -9.57,-25.344 -26.45,-25.344 -14.64,0 -18.02,7.887 -25.35,7.887 -12.38,0 -17.45,-16.328 -20.27,-25.336 6.76,-7.32 25.34,-28.156 25.34,-67.57 0,-56.863 -35.47,-88.957 -103.03,-88.957 -22.52,0 -38.85,2.809 -51.24,8.445 -3.38,-4.508 -10.14,-12.953 -10.14,-25.336 0,-22.523 28.15,-22.523 46.17,-22.523 l 66.45,0" /><path
         id="path3597"
         style="fill:#112552;fill-opacity:1;fill-rule:nonzero;stroke:none"
         d="m 2815.42,131.742 c 56.3,0 67.56,69.821 67.56,116.555 0,46.73 -11.26,116.551 -67.56,116.551 -56.31,0 -67.57,-69.821 -67.57,-116.551 0,-46.734 11.26,-116.555 67.57,-116.555 z m -117.69,116.555 c 0,84.457 45.62,135.129 117.69,135.129 72.07,0 117.68,-50.672 117.68,-135.129 0,-84.457 -45.61,-135.133 -117.68,-135.133 -72.07,0 -117.69,50.676 -117.69,135.133" /><path
         id="path3599"
         style="fill:#d29908;fill-opacity:1;fill-rule:nonzero;stroke:none"
         d="M 2436.63,21.7383 0,21.7383 0,7.44141 l 2450.27,0 c -5.17,4.37499 -9.71,9.16799 -13.64,14.29689" /><path
         id="path3601"
         style="fill:#d29908;fill-opacity:1;fill-rule:nonzero;stroke:none"
         d="m 2928.59,21.7383 -240.6,0 c -5.07,-5.1445 -10.66,-9.9141 -16.76,-14.29689 l 257.36,0 0,14.29689" /></g></g></svg>