<svg version="1" xmlns="http://www.w3.org/2000/svg" width="1177.333" height="1177.333" viewBox="0 0 883.000000 883.000000"><path d="M254.3 112.3c-140.5 85.1-184.9 112.5-184 113.3 2 2 193 119.7 194.1 119.7.6 0 40.2-22.5 88-50.1S439.6 245 440 245c.4 0 39.9 22.6 87.6 50.2 47.8 27.6 87.4 50.1 88 50.1 1.2 0 195.3-119.5 195.3-120.3C811 224.5 442.2.9 440.4.3c-.5-.1-84.2 50.3-186.1 112zM60 455.4v213.3l185.1 106.9c101.8 58.8 185.5 107 186 107.2 1.5.6 1.2-222.1-.3-223.6-.7-.7-39.6-23.4-86.5-50.4L259 559.5v-98c0-77-.3-98.5-1.2-99.7-.7-.8-10.3-6.9-21.3-13.5s-55.2-33.2-98.2-59.1L60 242v213.4zM722 302l-99.5 60-.5 98.6-.5 98.7-85.7 49.5-85.8 49.5v224.8l2.8-1.5c1.5-.8 84.8-48.9 185.2-106.9l182.5-105.5.7-161.8c.4-89.1.7-185.2.5-213.6l-.2-51.7L722 302z"/><path d="M358.8 315.1L279 361.2v186.3l79.7 46c43.8 25.3 80.4 46 81.3 46 .9 0 37.5-20.7 81.3-46l79.7-46V361.2l-79.9-46.1c-43.9-25.4-80.4-46.1-81.2-46.1-.8.1-37.3 20.8-81.1 46.1zm95.8 44c29.3 10.9 36.6 49.2 13.4 70.2-3.3 3-6 5.9-6 6.5 0 .6 4.7 20.7 10.5 44.8 5.8 24 10.5 44.3 10.5 45 0 1.2-7.3 1.4-41.6 1.4-32.9 0-41.5-.3-41.2-1.3.3-.6 4.5-21.3 9.4-45.9l8.9-44.7-6.2-5.6c-14.3-12.9-18.1-33.1-9.4-50.3 5.6-10.9 17.9-20.1 29.7-22.2 6.5-1.1 15.7-.2 22 2.1z"/></svg>