<?xml version="1.0" encoding="utf-8"?>
<!-- Generator: Adobe Illustrator 24.0.1, SVG Export Plug-In . SVG Version: 6.00 Build 0)  -->
<svg version="1.1" id="Layer_1" xmlns="http://www.w3.org/2000/svg" xmlns:xlink="http://www.w3.org/1999/xlink" x="0px" y="0px"
	 viewBox="0 0 309 34" style="enable-background:new 0 0 309 34;" xml:space="preserve">
<style type="text/css">
	.st0{fill:#FFFFFF;}
	.st1{fill:#F27575;stroke:#000000;stroke-miterlimit:10;}
	.st2{font-family:'Helvetica';}
	.st3{font-size:16.0772px;}
	.st4{font-family:'MyriadPro-Regular';}
	.st5{font-size:12px;}
	.st6{fill:#B5BCFF;stroke:#000000;stroke-miterlimit:10;}
	.st7{fill:#ABFFB7;stroke:#000000;stroke-miterlimit:10;}
	.st8{fill:#999999;}
</style>
<g>
	<g>
		<path class="st0" d="M18,30.5c-6.3,0-11.5-5.2-11.5-11.5v-2c0-6.3,5.2-11.5,11.5-11.5h41c6.3,0,11.5,5.2,11.5,11.5v2
			c0,6.3-5.2,11.5-11.5,11.5H18z"/>
		<path d="M59,6c6.1,0,11,4.9,11,11v2c0,6.1-4.9,11-11,11H18c-6.1,0-11-4.9-11-11v-2c0-6.1,4.9-11,11-11H59 M59,5H18
			C11.4,5,6,10.4,6,17v2c0,6.6,5.4,12,12,12h41c6.6,0,12-5.4,12-12v-2C71,10.4,65.6,5,59,5L59,5z"/>
	</g>
	<path class="st1" d="M17.5,30.5C10.9,30.5,6,25.6,6,19v-2c0-6.6,5.4-11.5,12-11.5h12.6"/>
</g>
<text transform="matrix(1 0 0 1 33.6108 22.8843)" class="st2 st3">AS</text>
<text transform="matrix(1 0 0 1 12.3613 18.0835)" class="st4 st5">e</text>
<g>
	<g>
		<path class="st0" d="M92.8,30.6c-6.3,0-11.5-5.2-11.5-11.5v-2c0-6.3,5.2-11.5,11.5-11.5h71c6.3,0,11.5,5.2,11.5,11.5v2
			c0,6.3-5.2,11.5-11.5,11.5H92.8z"/>
		<path d="M163.8,6.1c6.1,0,11,4.9,11,11v2c0,6.1-4.9,11-11,11h-71c-6.1,0-11-4.9-11-11v-2c0-6.1,4.9-11,11-11H163.8 M163.8,5.1h-71
			c-6.6,0-12,5.4-12,12v2c0,6.6,5.4,12,12,12h71c6.6,0,12-5.4,12-12v-2C175.8,10.5,170.4,5.1,163.8,5.1L163.8,5.1z"/>
	</g>
	<path class="st6" d="M92.3,30.6c-6.6,0-11.5-4.9-11.5-11.5v-2c0-6.6,5.4-11.5,12-11.5h12.6"/>
</g>
<text transform="matrix(1 0 0 1 104.3918 23.0079)" class="st2 st3">AS Rank</text>
<text transform="matrix(1 0 0 1 87.1423 18.2072)" class="st4 st5">d</text>
<g>
	<g>
		<path class="st0" d="M197.2,30.4c-6.3,0-11.5-5.2-11.5-11.5v-2c0-6.3,5.2-11.5,11.5-11.5h95c6.3,0,11.5,5.2,11.5,11.5v2
			c0,6.3-5.2,11.5-11.5,11.5H197.2z"/>
		<path d="M292.2,5.9c6.1,0,11,4.9,11,11v2c0,6.1-4.9,11-11,11h-95c-6.1,0-11-4.9-11-11v-2c0-6.1,4.9-11,11-11H292.2 M292.2,4.9h-95
			c-6.6,0-12,5.4-12,12v2c0,6.6,5.4,12,12,12h95c6.6,0,12-5.4,12-12v-2C304.2,10.3,298.8,4.9,292.2,4.9L292.2,4.9z"/>
	</g>
	<path class="st7" d="M196.7,30.4c-6.6,0-11.5-4.9-11.5-11.5v-2c0-6.6,5.4-11.5,12-11.5h12.6"/>
</g>
<text transform="matrix(1 0 0 1 208.7755 22.7521)"><tspan x="0" y="0" class="st2 st3">AS</tspan><tspan x="21.4" y="0" class="st8 st2 st3">+</tspan><tspan x="30.8" y="0" class="st2 st3">Country</tspan></text>
<text transform="matrix(1 0 0 1 191.526 17.9513)" class="st4 st5">j</text>
</svg>
