<?xml version="1.0" encoding="utf-8"?>
<!-- Generator: Adobe Illustrator 20.0.0, SVG Export Plug-In . SVG Version: 6.00 Build 0)  -->
<svg version="1.1" id="Layer_1" xmlns="http://www.w3.org/2000/svg" xmlns:xlink="http://www.w3.org/1999/xlink" x="0px" y="0px"
	 viewBox="0 0 580.4 385.1" style="enable-background:new 0 0 580.4 385.1;" xml:space="preserve">
<style type="text/css">
	.st0{fill:url(#SVGID_1_);stroke:#000000;stroke-width:2;stroke-miterlimit:10;}
	.st1{stroke:#000000;stroke-width:2;stroke-miterlimit:10;}
	.st2{fill:none;stroke:#000000;stroke-width:2;stroke-miterlimit:10;}
	.st3{fill:#FFFFFF;stroke:#000000;stroke-width:3;stroke-miterlimit:10;}
</style>
<g>
	<linearGradient id="SVGID_1_" gradientUnits="userSpaceOnUse" x1="9.9888" y1="214.5999" x2="572.1958" y2="214.5999">
		<stop  offset="0" style="stop-color:#C1272C"/>
		<stop  offset="1" style="stop-color:#FFFFFF"/>
	</linearGradient>
	<ellipse class="st0" cx="291.1" cy="214.6" rx="281.1" ry="279.9"/>
	<g>
		<path class="st1" d="M291.4,495.1c-75.3,0-146-29.2-199.2-82.2C38.9,360,9.6,289.5,9.6,214.6c0-74.9,29.3-145.4,82.5-198.4
			c53.2-53,124-82.2,199.2-82.2c75.3,0,146,29.2,199.2,82.2c53.2,53,82.5,123.4,82.5,198.4c0,74.9-29.3,145.4-82.5,198.4
			C437.4,466,366.6,495.1,291.4,495.1z M291.4-63.9c-74.7,0-145,29-197.8,81.6c-52.8,52.6-81.9,122.6-81.9,197
			c0,74.4,29.1,144.4,81.9,197c52.8,52.6,123.1,81.6,197.8,81.6c74.7,0,145-29,197.8-81.6c52.8-52.6,81.9-122.6,81.9-197
			c0-74.4-29.1-144.3-81.9-197C436.4-35,366.1-63.9,291.4-63.9z"/>
	</g>
	<g>
		<rect x="10.6" y="214.1" class="st1" width="559.6" height="2"/>
	</g>
	<g>
		<rect x="288.7" y="-63.4" class="st1" width="2" height="555.1"/>
	</g>
	<g>
		<path class="st1" d="M291,137.1c-68.2,0-132.3-3.6-180.6-10.1c-34.5-4.7-75.6-12.9-75.6-25.4c0-12.5,41.1-20.7,75.6-25.4
			C158.7,69.6,222.8,66,291,66c68.2,0,132.3,3.6,180.6,10.1c34.5,4.7,75.6,12.9,75.6,25.4c0,12.5-41.1,20.7-75.6,25.4
			C423.3,133.5,359.2,137.1,291,137.1z M291,68c-68.1,0-132.1,3.6-180.3,10.1c-46.3,6.3-73.9,15-73.9,23.4
			c0,8.4,27.6,17.2,73.9,23.4c48.2,6.5,112.2,10.1,180.3,10.1c68.1,0,132.1-3.6,180.3-10.1c46.3-6.3,73.9-15,73.9-23.4
			c0-8.4-27.6-17.2-73.9-23.4C423.1,71.6,359.1,68,291,68z"/>
	</g>
	<g>
		<path class="st1" d="M291.2,67.5c-50.5,0-98-5.2-133.8-14.7c-36.1-9.6-56.1-22.4-56.1-36.3c0-13.8,19.9-26.7,56.1-36.3
			c35.7-9.5,83.3-14.7,133.8-14.7c50.5,0,98,5.2,133.8,14.7C461.1-10.2,481,2.7,481,16.6c0,13.8-19.9,26.7-56.1,36.3
			C389.2,62.3,341.7,67.5,291.2,67.5z M291.2-32.4c-50.4,0-97.7,5.2-133.3,14.6c-34.7,9.2-54.6,21.7-54.6,34.4
			c0,12.7,19.9,25.2,54.6,34.4c35.6,9.4,82.9,14.6,133.3,14.6c50.4,0,97.7-5.2,133.3-14.6c34.7-9.2,54.6-21.7,54.6-34.4
			c0-12.7-19.9-25.2-54.6-34.4C388.9-27.2,341.5-32.4,291.2-32.4z"/>
	</g>
	<g>
		<path class="st1" d="M290-2.4c-54.3,0-96.9-13.4-96.9-30.4c0-17,42.6-30.4,96.9-30.4c54.3,0,96.9,13.4,96.9,30.4
			C386.9-15.7,344.4-2.4,290-2.4z M290-61.2c-51.5,0-94.9,13-94.9,28.4c0,15.4,43.5,28.4,94.9,28.4c51.5,0,94.9-13,94.9-28.4
			C384.9-48.2,341.5-61.2,290-61.2z"/>
	</g>
	<g>
		<path class="st1" d="M291.2,363.5c-68.2,0-132.3-3.6-180.6-10.1c-34.5-4.7-75.6-12.9-75.6-25.4c0-12.5,41.1-20.7,75.6-25.4
			c48.2-6.5,112.4-10.1,180.6-10.1c68.2,0,132.3,3.6,180.6,10.1c34.5,4.7,75.6,12.9,75.6,25.4c0,12.5-41.1,20.7-75.6,25.4
			C423.6,359.9,359.4,363.5,291.2,363.5z M291.2,294.4c-68.1,0-132.1,3.6-180.3,10.1c-46.3,6.3-73.9,15-73.9,23.4
			c0,8.4,27.6,17.2,73.9,23.4c48.2,6.5,112.2,10.1,180.3,10.1c68.1,0,132.1-3.6,180.3-10.1c46.3-6.3,73.9-15,73.9-23.4
			c0-8.4-27.6-17.2-73.9-23.4C423.4,298,359.3,294.4,291.2,294.4z"/>
	</g>
	<g>
		<path class="st1" d="M291,463.8c-50.5,0-98-5.2-133.8-14.7c-36.1-9.6-56.1-22.4-56.1-36.3c0-13.8,19.9-26.7,56.1-36.3
			C193,367.2,240.5,362,291,362s98,5.2,133.8,14.7c36.1,9.6,56.1,22.4,56.1,36.3c0,13.8-19.9,26.7-56.1,36.3
			C389.1,458.6,341.6,463.8,291,463.8z M291,364c-50.4,0-97.7,5.2-133.3,14.6c-34.7,9.2-54.6,21.7-54.6,34.4
			c0,12.7,19.9,25.2,54.6,34.4c35.6,9.4,82.9,14.6,133.3,14.6c50.4,0,97.7-5.2,133.3-14.6c34.7-9.2,54.6-21.7,54.6-34.4
			c0-12.7-19.9-25.2-54.6-34.4C388.7,369.1,341.4,364,291,364z"/>
	</g>
	<g>
		<path class="st1" d="M290.2,492.6c-54.3,0-96.9-13.4-96.9-30.4c0-17,42.6-30.4,96.9-30.4c54.3,0,96.9,13.4,96.9,30.4
			C387.1,479.3,344.6,492.6,290.2,492.6z M290.2,433.8c-51.5,0-94.9,13-94.9,28.4s43.5,28.4,94.9,28.4c51.5,0,94.9-13,94.9-28.4
			S341.7,433.8,290.2,433.8z"/>
	</g>
	<g>
		<path class="st1" d="M337.8,486.2c-52.1,0-101.1-28.2-138-79.5c-36.8-51.2-57-119.2-57-191.5c0-72.3,20.2-140.3,57-191.5
			c36.8-51.3,85.8-79.5,138-79.5c52.1,0,101.1,28.2,138,79.5c36.8,51.2,57,119.2,57,191.5c0,72.3-20.2,140.3-57,191.5
			C438.9,458,389.9,486.2,337.8,486.2z M337.8-53.7c-106.4,0-193,120.7-193,269c0,148.3,86.6,269,193,269c106.4,0,193-120.7,193-269
			C530.7,66.9,444.2-53.7,337.8-53.7z"/>
	</g>
	<g>
		<path class="st1" d="M240.9,486.2c-52.1,0-101.1-28.2-138-79.5c-36.8-51.2-57-119.2-57-191.5c0-72.3,20.2-140.3,57-191.5
			c36.8-51.3,85.8-79.5,138-79.5c52.1,0,101.1,28.2,138,79.5c36.8,51.2,57,119.2,57,191.5c0,72.3-20.2,140.3-57,191.5
			C342,458,293,486.2,240.9,486.2z M240.9-53.8c-106.4,0-193,120.7-193,269c0,148.3,86.6,269,193,269c106.4,0,193-120.7,193-269
			C433.9,66.9,347.3-53.8,240.9-53.8z"/>
	</g>
</g>
<g>
	<line class="st1" x1="317.6" y1="310.9" x2="455.4" y2="343.5"/>
	<line class="st1" x1="312.9" y1="307.5" x2="455.4" y2="262.8"/>
	<line class="st1" x1="314" y1="305.5" x2="473.2" y2="270.1"/>
	<line class="st1" x1="463.4" y1="327.4" x2="293.3" y2="312.5"/>
	<line class="st1" x1="482.9" y1="346.1" x2="316.7" y2="310.9"/>
	<line class="st1" x1="429.6" y1="371" x2="317.6" y2="310.9"/>
	<line class="st1" x1="311.1" y1="307.2" x2="494.2" y2="307.7"/>
	<line class="st1" x1="311.1" y1="307.2" x2="463.1" y2="342.2"/>
	<line class="st1" x1="311.1" y1="307.2" x2="446.1" y2="297"/>
	<line class="st1" x1="311.1" y1="307.2" x2="365" y2="446.1"/>
	<line class="st1" x1="311.1" y1="307.2" x2="260.1" y2="449.5"/>
	<line class="st1" x1="311.9" y1="315" x2="305.2" y2="437.9"/>
	<line class="st1" x1="311.1" y1="310.9" x2="298" y2="459.2"/>
	<line class="st1" x1="309.4" y1="310.8" x2="248.4" y2="31.8"/>
	<line class="st1" x1="314" y1="309.4" x2="399.5" y2="154.7"/>
	<line class="st1" x1="311.1" y1="307.2" x2="508.3" y2="275.6"/>
	<line class="st1" x1="311.1" y1="307.2" x2="496.6" y2="240.7"/>
	<line class="st1" x1="311.1" y1="307.2" x2="505.8" y2="254.8"/>
	<line class="st1" x1="311.1" y1="307.2" x2="477.7" y2="233.4"/>
	<line class="st1" x1="311.1" y1="307.2" x2="453.9" y2="389.3"/>
	<line class="st1" x1="311.1" y1="307.2" x2="421.8" y2="415.5"/>
	<line class="st1" x1="311.1" y1="307.2" x2="443.7" y2="407.8"/>
	<line class="st1" x1="314" y1="309.4" x2="403.8" y2="434"/>
	<line class="st1" x1="311.1" y1="307.2" x2="372.3" y2="420.9"/>
	<line class="st1" x1="311.9" y1="309.4" x2="330.5" y2="415.5"/>
	<line class="st1" x1="311.9" y1="309.4" x2="317.9" y2="459.2"/>
	<line class="st1" x1="311.9" y1="309.4" x2="230.9" y2="449.5"/>
	<line class="st1" x1="311.1" y1="310.9" x2="210" y2="441.3"/>
	<line class="st1" x1="140.6" y1="42" x2="235.8" y2="389.3"/>
	<line class="st1" x1="235.8" y1="389.3" x2="248.4" y2="31.8"/>
	<line class="st1" x1="276.1" y1="-5.6" x2="235.8" y2="389.3"/>
	<line class="st1" x1="338" y1="-18.7" x2="326.1" y2="18.7"/>
	<line class="st1" x1="326.1" y1="18.7" x2="314.9" y2="-18.7"/>
	<line class="st1" x1="326.1" y1="18.7" x2="380" y2="5.1"/>
	<line class="st1" x1="326.1" y1="18.7" x2="416" y2="50.8"/>
	<line class="st1" x1="314.9" y1="48.3" x2="403.8" y2="411.2"/>
	<line class="st1" x1="416" y1="383.2" x2="315.5" y2="50.8"/>
	<line class="st1" x1="180.4" y1="129.4" x2="326.1" y2="18.7"/>
	<line class="st1" x1="205.2" y1="-5.6" x2="393.7" y2="369.9"/>
	<line class="st1" x1="276.1" y1="-5.6" x2="299.5" y2="103.9"/>
	<line class="st1" x1="279.7" y1="54" x2="394.8" y2="374.2"/>
	<line class="st1" x1="140.6" y1="42" x2="180.4" y2="129.4"/>
	<line class="st1" x1="180.4" y1="129.4" x2="299.5" y2="339.6"/>
	<line class="st1" x1="180.4" y1="129.4" x2="365" y2="182.2"/>
	<line class="st1" x1="184.8" y1="130.7" x2="287.8" y2="197.8"/>
	<line class="st1" x1="180.4" y1="129.4" x2="280.7" y2="173.8"/>
	<line class="st1" x1="440.1" y1="229.7" x2="311.1" y2="307.2"/>
	<line class="st1" x1="460.2" y1="229.7" x2="314" y2="305.5"/>
	<line class="st1" x1="501" y1="291.4" x2="311.9" y2="309.4"/>
	<line class="st1" x1="501" y1="315.6" x2="314" y2="309.4"/>
	<line class="st1" x1="484.1" y1="324.7" x2="314" y2="309.4"/>
	<line class="st1" x1="466" y1="364" x2="314" y2="309.4"/>
	<line class="st1" x1="473.8" y1="374.2" x2="314" y2="309.4"/>
	<line class="st1" x1="283.4" y1="459.2" x2="310.6" y2="312.5"/>
	<line class="st1" x1="283.4" y1="434" x2="310.6" y2="312.5"/>
	<line class="st1" x1="276.1" y1="449.5" x2="309.2" y2="316.6"/>
	<line class="st1" x1="255.9" y1="459.2" x2="311.9" y2="309.4"/>
	<line class="st1" x1="276.1" y1="418" x2="308.6" y2="321.6"/>
	<line class="st1" x1="490" y1="344.8" x2="314" y2="309.4"/>
	<line class="st1" x1="440.1" y1="344.8" x2="314" y2="309.4"/>
	<line class="st1" x1="344.3" y1="452.3" x2="314" y2="309.4"/>
	<line class="st1" x1="329.1" y1="459.2" x2="312.7" y2="313.8"/>
	<line class="st1" x1="409.7" y1="429" x2="314" y2="309.4"/>
	<line class="st1" x1="421.8" y1="234.5" x2="314" y2="305.5"/>
	<line class="st1" x1="394.8" y1="243.7" x2="314" y2="305.5"/>
	<line class="st1" x1="317.9" y1="304.2" x2="375.6" y2="249.6"/>
	<line class="st1" x1="466" y1="395.3" x2="314" y2="309.4"/>
	<line class="st1" x1="412.9" y1="418" x2="235.8" y2="389.3"/>
	<line class="st1" x1="403.8" y1="411.2" x2="235.8" y2="389.3"/>
	<line class="st1" x1="412.9" y1="418" x2="314" y2="309.4"/>
	<line class="st1" x1="393.7" y1="434" x2="311.9" y2="309.4"/>
	<line class="st1" x1="377.4" y1="446.1" x2="314" y2="314.8"/>
	<line class="st1" x1="358.9" y1="418" x2="311.9" y2="309.4"/>
	<line class="st1" x1="346.7" y1="423.8" x2="311.1" y2="307.2"/>
	<line class="st1" x1="335.4" y1="441.3" x2="314" y2="314.8"/>
	<line class="st1" x1="255.9" y1="423.8" x2="311.9" y2="309.4"/>
	<line class="st1" x1="239.9" y1="446.1" x2="310.6" y2="312.5"/>
	<line class="st1" x1="230.9" y1="434" x2="314" y2="305.5"/>
	<line class="st1" x1="230.6" y1="400.2" x2="308.2" y2="314.5"/>
	<line class="st1" x1="201.1" y1="429" x2="311.1" y2="312.8"/>
	<line class="st1" x1="201.1" y1="415.5" x2="314" y2="309.4"/>
	<line class="st1" x1="201.1" y1="400.2" x2="308.2" y2="313.8"/>
	<line class="st1" x1="210" y1="384.3" x2="310.6" y2="311.7"/>
	<line class="st1" x1="216" y1="369.9" x2="311.1" y2="310.9"/>
	<line class="st1" x1="197.7" y1="414.7" x2="309.2" y2="312.8"/>
	<line class="st1" x1="225.4" y1="357" x2="311.9" y2="309.4"/>
	<line class="st1" x1="240.4" y1="343.9" x2="309.2" y2="310.1"/>
	<line class="st1" x1="249.2" y1="333.2" x2="309.2" y2="310.1"/>
	<line class="st1" x1="263.5" y1="320.2" x2="309.2" y2="310.1"/>
	<line class="st1" x1="315.5" y1="312.8" x2="357.5" y2="375.1"/>
	<line class="st1" x1="391" y1="378" x2="319.8" y2="315.2"/>
	<line class="st1" x1="415.7" y1="382.4" x2="316.7" y2="310.9"/>
	<line class="st1" x1="342.6" y1="-12.2" x2="326.1" y2="18.7"/>
	<line class="st1" x1="362.7" y1="-9.9" x2="326.3" y2="18.3"/>
	<line class="st1" x1="375.3" y1="-10.4" x2="327" y2="17.8"/>
	<line class="st1" x1="327.4" y1="18.7" x2="401.7" y2="13.4"/>
	<line class="st1" x1="327.4" y1="18.7" x2="391.8" y2="23.2"/>
	<line class="st1" x1="327.8" y1="18.3" x2="419.1" y2="29.5"/>
	<line class="st1" x1="327.8" y1="18.3" x2="413.1" y2="38.4"/>
	<line class="st1" x1="324.1" y1="-16.4" x2="326.3" y2="18.3"/>
	<line class="st1" x1="302.5" y1="-20.2" x2="326.1" y2="18.7"/>
	<line class="st1" x1="300.9" y1="-14.5" x2="326.1" y2="18.7"/>
	<line class="st1" x1="300.9" y1="-7.9" x2="326.1" y2="18.7"/>
	<line class="st1" x1="326.1" y1="18.7" x2="428.9" y2="69.2"/>
	<line class="st1" x1="326.1" y1="18.7" x2="434.8" y2="83.5"/>
	<line class="st1" x1="326.1" y1="18.7" x2="349.1" y2="50.8"/>
	<line class="st1" x1="326.1" y1="18.7" x2="377.5" y2="66"/>
	<line class="st1" x1="326.1" y1="18.7" x2="397.2" y2="70.2"/>
	<line class="st1" x1="205.2" y1="-5.6" x2="257.2" y2="-25.8"/>
	<line class="st1" x1="205.2" y1="-5.6" x2="254.4" y2="-29.7"/>
	<line class="st1" x1="205.2" y1="-5.6" x2="249.7" y2="-31.8"/>
	<line class="st1" x1="205.2" y1="-5.6" x2="236.9" y2="-28.3"/>
	<line class="st1" x1="205.2" y1="-5.6" x2="231.2" y2="-28.3"/>
	<line class="st1" x1="205.2" y1="-5.6" x2="221.7" y2="-27.1"/>
	<line class="st1" x1="212.3" y1="-21.3" x2="205.2" y2="-5.6"/>
	<line class="st1" x1="205.2" y1="-5.6" x2="205.2" y2="-20.2"/>
	<line class="st1" x1="205.2" y1="-5.6" x2="193.4" y2="-18.7"/>
	<line class="st1" x1="205.2" y1="-5.6" x2="190.6" y2="-15.7"/>
	<line class="st1" x1="205.2" y1="-5.6" x2="180.4" y2="-12.9"/>
	<line class="st1" x1="205.2" y1="-5.6" x2="171.7" y2="-7.9"/>
	<line class="st1" x1="205.2" y1="-5.6" x2="133.6" y2="3.2"/>
	<line class="st1" x1="205.2" y1="-5.6" x2="148.5" y2="6.9"/>
	<line class="st1" x1="205.2" y1="-5.6" x2="139.1" y2="16.1"/>
	<line class="st1" x1="132.2" y1="25.3" x2="205.2" y2="-5.6"/>
	<line class="st1" x1="139.1" y1="28.3" x2="205.2" y2="-5.6"/>
	<line class="st1" x1="157.1" y1="23.9" x2="204.3" y2="-5.1"/>
	<line class="st1" x1="140.6" y1="42" x2="161.8" y2="30.5"/>
	<line class="st1" x1="140.6" y1="42" x2="160.5" y2="25.3"/>
	<line class="st1" x1="140.6" y1="42" x2="157.1" y2="23.9"/>
	<line class="st1" x1="140.6" y1="42" x2="155" y2="20.9"/>
	<line class="st1" x1="140.6" y1="42" x2="139.1" y2="28.3"/>
	<line class="st1" x1="140.6" y1="42" x2="133.6" y2="29.5"/>
	<line class="st1" x1="140.6" y1="42" x2="128" y2="31.8"/>
	<line class="st1" x1="140.6" y1="42" x2="125.5" y2="34.7"/>
	<line class="st1" x1="140.6" y1="42" x2="113.2" y2="42"/>
	<line class="st1" x1="140.6" y1="42" x2="114.4" y2="45.7"/>
	<line class="st1" x1="140.6" y1="42" x2="114.4" y2="49.1"/>
	<line class="st1" x1="140.6" y1="42" x2="147.7" y2="23.9"/>
	<line class="st1" x1="114.4" y1="61.6" x2="140.6" y2="42"/>
	<line class="st1" x1="121.6" y1="58.7" x2="140.6" y2="42"/>
	<line class="st1" x1="123.4" y1="36.9" x2="140.6" y2="42"/>
	<line class="st1" x1="279.2" y1="-20.2" x2="349.1" y2="50.8"/>
	<line class="st1" x1="263.5" y1="-20.2" x2="349.1" y2="50.8"/>
	<line class="st1" x1="274.8" y1="-10.4" x2="319.8" y2="54"/>
	<line class="st1" x1="269.7" y1="-15.1" x2="287.9" y2="159.2"/>
	<line class="st1" x1="269.7" y1="-15.1" x2="248.3" y2="33.7"/>
	<line class="st1" x1="271" y1="-2.4" x2="248.4" y2="31.8"/>
	<line class="st1" x1="205.2" y1="-5.6" x2="423.3" y2="114.9"/>
	<line class="st1" x1="205.2" y1="-5.6" x2="286.4" y2="60.8"/>
	<line class="st1" x1="423.3" y1="114.9" x2="286.4" y2="60.8"/>
	<line class="st1" x1="286.4" y1="60.8" x2="314.9" y2="48.3"/>
	<line class="st1" x1="302.5" y1="67.2" x2="314.9" y2="48.3"/>
	<line class="st1" x1="290.9" y1="64" x2="313.5" y2="49.1"/>
	<line class="st1" x1="248.4" y1="31.8" x2="335.5" y2="39.5"/>
	<line class="st1" x1="248.4" y1="31.8" x2="183.2" y2="127.3"/>
	<line class="st1" x1="247.8" y1="49.1" x2="183.2" y2="127.3"/>
	<line class="st1" x1="205.2" y1="-5.6" x2="276.9" y2="157"/>
	<line class="st1" x1="140.6" y1="42" x2="301.7" y2="313.8"/>
	<line class="st1" x1="140.6" y1="42" x2="286.4" y2="317.1"/>
	<line class="st1" x1="180.4" y1="129.4" x2="309.2" y2="310.1"/>
	<line class="st1" x1="298" y1="103.9" x2="363.5" y2="182.2"/>
	<line class="st1" x1="405.1" y1="137.2" x2="365" y2="182.2"/>
	<line class="st1" x1="423.3" y1="114.9" x2="399.5" y2="154.7"/>
	<line class="st1" x1="423.3" y1="114.9" x2="405.1" y2="137.2"/>
	<line class="st1" x1="183.2" y1="130.7" x2="271" y2="125.5"/>
	<line class="st1" x1="494.2" y1="307.7" x2="271" y2="125.5"/>
	<line class="st1" x1="399.1" y1="144" x2="271" y2="125.5"/>
	<line class="st1" x1="365" y1="182.2" x2="440.1" y2="229.7"/>
	<line class="st1" x1="365" y1="182.2" x2="394.8" y2="243.7"/>
	<line class="st1" x1="180.4" y1="129.4" x2="320.5" y2="27.1"/>
	<line class="st1" x1="184.8" y1="127.3" x2="323.5" y2="29.5"/>
	<line class="st1" x1="380" y1="5.1" x2="365" y2="182.2"/>
	<line class="st1" x1="375.3" y1="-10.4" x2="364.5" y2="179.5"/>
	<line class="st1" x1="362.7" y1="-9.9" x2="363.5" y2="182.2"/>
	<line class="st1" x1="364.5" y1="179.5" x2="363.5" y2="182.2"/>
	<line class="st1" x1="361.7" y1="90.5" x2="309.2" y2="310.1"/>
	<line class="st1" x1="362.7" y1="-9.9" x2="235.8" y2="389.3"/>
	<line class="st1" x1="365" y1="182.2" x2="366.4" y2="258.2"/>
	<line class="st1" x1="364.5" y1="180.8" x2="356.8" y2="219.6"/>
	<line class="st1" x1="423.3" y1="114.9" x2="403.8" y2="411.2"/>
	<line class="st1" x1="423.3" y1="114.9" x2="443.7" y2="407.8"/>
	<line class="st1" x1="276.1" y1="309.4" x2="307" y2="310.1"/>
	<line class="st1" x1="292.3" y1="298" x2="309.2" y2="310.1"/>
	<line class="st1" x1="297.3" y1="305.5" x2="307" y2="310.1"/>
	<line class="st1" x1="235.8" y1="389.3" x2="302.5" y2="67.2"/>
	<line class="st1" x1="308.9" y1="308.3" x2="297.3" y2="99.3"/>
	<line class="st1" x1="257.6" y1="73.1" x2="334.4" y2="293.2"/>
	<line class="st1" x1="259.7" y1="72" x2="360.1" y2="305.5"/>
	<line class="st1" x1="399.1" y1="144" x2="300.9" y2="42.3"/>
	<line class="st1" x1="399.1" y1="144" x2="282.7" y2="57.7"/>
	<line class="st1" x1="172.2" y1="14.6" x2="248.4" y2="31.8"/>
	<line class="st1" x1="235.8" y1="389.3" x2="286.4" y2="60.8"/>
	<line class="st1" x1="275.3" y1="137.2" x2="308.9" y2="308.3"/>
	<line class="st1" x1="308.9" y1="308.3" x2="298" y2="194.5"/>
	<line class="st1" x1="308.9" y1="308.3" x2="303.4" y2="119.9"/>
	<line class="st1" x1="311.1" y1="307.2" x2="300.9" y2="107.3"/>
	<line class="st1" x1="315.5" y1="50.8" x2="314" y2="305.5"/>
	<line class="st1" x1="392.9" y1="366.6" x2="300.9" y2="128.8"/>
	<line class="st1" x1="248.4" y1="31.8" x2="308.2" y2="314.5"/>
	<line class="st1" x1="205.2" y1="-5.6" x2="403.8" y2="411.2"/>
	<line class="st1" x1="305.2" y1="165.1" x2="397.2" y2="391.5"/>
	<line class="st1" x1="257.6" y1="73.1" x2="398.6" y2="400.2"/>
	<line class="st1" x1="183.2" y1="130.7" x2="361.7" y2="90.5"/>
	<line class="st1" x1="300.9" y1="42.3" x2="423.3" y2="114.9"/>
	<line class="st1" x1="279.7" y1="54" x2="280.7" y2="134.8"/>
	<line class="st1" x1="279.7" y1="54" x2="284.3" y2="149.7"/>
	<line class="st1" x1="235" y1="386.5" x2="277.2" y2="5.1"/>
	<line class="st1" x1="276.7" y1="-9.2" x2="236.9" y2="369.9"/>
	<line class="st1" x1="277.2" y1="-3.2" x2="282.7" y2="57.7"/>
	<line class="st1" x1="276.7" y1="-9.2" x2="284.3" y2="54.6"/>
	<line class="st1" x1="284.3" y1="54.6" x2="335.5" y2="39.5"/>
	<line class="st1" x1="257.6" y1="73.1" x2="335.5" y2="39.5"/>
	<line class="st1" x1="266.6" y1="64" x2="335.5" y2="39.5"/>
	<line class="st1" x1="282.7" y1="57.7" x2="399.5" y2="395.3"/>
	<line class="st1" x1="286.9" y1="56.6" x2="398.6" y2="400.2"/>
	<line class="st2" x1="363.5" y1="182.2" x2="309.4" y2="310.8"/>
	<line class="st2" x1="423.3" y1="114.9" x2="365.4" y2="202.8"/>
	<line class="st2" x1="365.4" y1="202.8" x2="312.4" y2="310.9"/>
	<line class="st2" x1="421.8" y1="234.5" x2="423.3" y2="114.9"/>
	<line class="st2" x1="394.8" y1="243.7" x2="423.3" y2="114.9"/>
	<line class="st2" x1="375.6" y1="249.6" x2="423.3" y2="114.9"/>
	<line class="st2" x1="365.7" y1="183.7" x2="421.8" y2="116.7"/>
	<line class="st2" x1="365" y1="182.2" x2="312.9" y2="307.5"/>
	<line class="st2" x1="180.4" y1="129.4" x2="377.5" y2="66"/>
	<line class="st2" x1="440.1" y1="229.7" x2="486.9" y2="134.7"/>
	<line class="st2" x1="363.5" y1="182.2" x2="517.1" y2="165.1"/>
	<line class="st2" x1="399.1" y1="144" x2="514.6" y2="165.4"/>
	<line class="st2" x1="386.2" y1="219.6" x2="501" y2="157"/>
	<polygon points="478.7,132.5 492.3,138.8 492.3,123.3 	"/>
	<polygon points="496.6,152.7 501,162.8 509.8,152.7 	"/>
	<polygon points="509.8,159.7 509.8,171.3 524.3,165.4 	"/>
	<polygon points="416,116.7 424.8,107.3 425.3,110.6 426.7,119.9 	"/>
	<polygon points="438.1,107.3 434.8,119.9 425.4,111.7 	"/>
	<polygon points="458.3,228.2 460.2,232.1 463.1,228.4 	"/>
	<polygon points="473.8,232.1 476.5,236.6 480.9,230.1 	"/>
	<polygon points="494.2,238.1 495.4,243.7 501,238.1 	"/>
	<polygon points="503.2,252.5 504.7,256.9 509.8,253.4 	"/>
	<polygon points="453.9,261.3 455.4,266.1 460.2,261.3 	"/>
	<polygon points="471.6,268.5 472.7,272.5 476.7,270 	"/>
	<polygon points="506.5,273.9 507.7,278.3 511,274.6 	"/>
	<polygon points="499.8,289.5 500.4,294.3 504.4,291.4 	"/>
	<polygon points="494.2,303.1 490.7,310.8 499.8,310.1 	"/>
	<polygon points="499.8,313.3 499.8,318.2 504.4,315.6 	"/>
	<polygon points="483.4,321.6 482.9,328.5 488,325.1 	"/>
	<polygon points="462.2,324.7 462.2,330.8 468.5,328.5 	"/>
	<polygon points="488,341.4 486.9,348 495.3,345.7 	"/>
	<polygon points="482,343.9 480.8,349.3 486.9,347.4 	"/>
	<polygon points="462.2,339.2 460.2,344.8 467.6,343.9 	"/>
	<polygon points="454.9,340.4 452.8,346.1 460.2,346.1 	"/>
	<polygon points="440.1,342 437.5,346.6 444.7,347.4 	"/>
	<polygon points="466,361.4 463.9,366.1 470.7,366.1 	"/>
	<polygon points="473.8,371.7 471.6,376.7 476.7,376.1 	"/>
	<polygon points="431,367.1 428.4,372.7 433.5,372.7 	"/>
	<polygon points="453.9,385.9 450.8,391.5 456.5,391.5 	"/>
	<polygon points="466,392.1 463.1,396.6 468.5,397.7 	"/>
	<polygon points="418.9,380.5 412.9,383.2 417.6,386.5 	"/>
	<polygon points="440.1,407.8 447,404.8 446.1,412.3 	"/>
	<polygon points="397.2,393.5 403.2,392.1 400.8,398.6 	"/>
	<polygon points="399.8,408.5 407.5,407.1 405.2,414.1 	"/>
	<polygon points="418.9,416.5 423.3,412.8 424.5,418.6 	"/>
	<polygon points="353.6,375.1 358.9,372.2 358.9,377.2 	"/>
	<polygon points="409.7,420.2 414.1,415.5 415.9,422 	"/>
	<polygon points="407.5,430.3 411.3,427 411.3,432.3 	"/>
	<polygon points="401.6,434 405.5,432.3 405.5,435.8 	"/>
	<polygon points="391.9,434.1 394.8,431.7 394.8,435.8 	"/>
	<polygon points="370.5,420.9 373.6,418.8 373.6,422 	"/>
	<polygon points="356.9,418 360.5,416.3 359.9,419.7 	"/>
	<polygon points="375.1,446.6 379.1,444.6 378.3,448 	"/>
	<polygon points="362.7,446.3 366.4,444.6 365.7,447.5 	"/>
	<polygon points="344.3,423.8 348.5,422 346.9,425.2 	"/>
	<polygon points="328.9,415.5 332.4,414.7 330.5,418 	"/>
	<polygon points="333.9,441.3 337.3,440.6 335.6,442.8 	"/>
	<polygon points="342.8,452.3 345.7,451.4 344.7,453.9 	"/>
	<polygon points="327.4,459.2 330.5,459.2 329.1,461.1 	"/>
	<polygon points="316.7,458.8 319.2,458.8 318,461.1 	"/>
	<polygon points="303.8,437.9 307,437.9 305.4,439.7 	"/>
	<polygon points="296.1,458.8 299.5,459.2 298,460.2 	"/>
	<polygon points="282.7,458.2 285.6,459.2 282.7,459.9 	"/>
	<polygon points="281.7,433.2 285.6,434 282.7,434.7 	"/>
	<polygon points="274.8,448.6 277.8,449.5 274.8,450.3 	"/>
	<polygon points="259.4,448.6 262.4,449.4 260.1,450.3 	"/>
	<polygon points="254.6,458.2 257.6,458.8 254.6,461.1 	"/>
	<polygon points="274.8,417.3 277.8,417.3 274.8,419.7 	"/>
	<polygon points="254.6,423.1 258.3,423.8 254.6,425.2 	"/>
	<polygon points="238.5,445.2 242.1,446 239.1,447.5 	"/>
	<polygon points="229.1,448.6 232.7,449.4 229.6,451.4 	"/>
	<polygon points="229.1,433.2 232.7,434 229.1,434.7 	"/>
	<polygon points="234.4,387.8 237.3,390.8 232.7,393 	"/>
	<polygon points="229.5,399 232.7,401.2 229.5,401.7 	"/>
	<polygon points="200,427 200.2,427.1 203.5,429 200,430.4 	"/>
	<polygon points="208.7,440.6 212.6,441.3 208.7,442.8 	"/>
	<polygon points="200,414.7 203.5,415.5 200,416.3 	"/>
	<polygon points="196.6,414.1 199.5,414.7 196.1,415.5 	"/>
	<polygon points="199.5,399 202.8,400.4 200,401.7 	"/>
	<polygon points="209.2,383.2 211.7,384.3 209.2,385.9 	"/>
	<polygon points="214.9,368.7 217.9,370.9 214.9,371 	"/>
	<polygon points="224.2,355.9 227.1,357.5 224.2,358.6 	"/>
	<polygon points="240.6,341.8 242.6,345.2 238.9,345.2 	"/>
	<polygon points="249.2,331.9 250.2,334.2 248.4,334.2 	"/>
	<polygon points="263.5,319.1 264.4,321.6 262.3,320.2 	"/>
	<polygon points="276.1,308.3 276.7,310.8 274.3,309.4 	"/>
	<polygon points="293.3,311.7 293.3,314.5 292.1,312.5 	"/>
	<polygon points="298,304.2 298.2,307.8 296,305.1 	"/>
	<line class="st2" x1="386.2" y1="219.6" x2="486.9" y2="134.7"/>
	<line class="st2" x1="315.7" y1="309" x2="430" y2="114.6"/>
	<line class="st2" x1="363.5" y1="182.2" x2="450.8" y2="144"/>
	<line class="st2" x1="386.2" y1="219.6" x2="430" y2="114.6"/>
	<line class="st2" x1="399.1" y1="144" x2="485.5" y2="183.1"/>
	<polygon points="447.4,138.8 450.8,149.7 460.2,140.8 	"/>
	<polygon points="485.5,178.1 480.9,188.3 492.3,188.3 	"/>
	<polygon points="467.6,175.1 459.3,171.3 477.7,169.5 	"/>
	<polygon points="387.1,240.9 399.5,238.1 394.8,246.5 	"/>
	<polygon points="418.9,232.1 426.7,232.1 421.8,238.1 	"/>
	<polygon points="434.8,230.1 439.3,225.1 442.3,232.1 	"/>
	<polygon points="372.6,248.6 375.3,253.4 378.6,249.6 	"/>
	<polygon points="372.3,64 374.3,72 382.5,66 	"/>
	<polygon points="356.7,88.2 357.5,94.4 366.2,89.5 	"/>
	<polygon points="330.7,36.9 332.1,44.4 338.9,38.4 	"/>
	<polygon points="344.5,51.1 351.1,47.1 351.2,54.6 	"/>
	<polygon points="274,-5.1 282.7,-9.2 275.3,-15.1 	"/>
	<polygon points="265.5,-12.9 272.4,-10.4 274,-17.6 	"/>
	<polygon points="263.5,-17.6 266.6,-21.3 261.1,-22.9 	"/>
	<polygon points="318.4,25.3 321.6,33.7 328.1,27.1 	"/>
	<polygon points="278.3,-17.6 282,-21.3 278.3,-22.9 	"/>
	<polygon points="433.5,78.6 430,85.7 438.5,86.1 	"/>
	<polygon points="428.9,66 426.7,70.2 433.5,72 	"/>
	<polygon points="398.6,68 394.8,72 399.5,72 	"/>
	<polygon points="417,48.3 413.6,54 419.1,54 	"/>
	<polygon points="413.1,35.2 411.4,40.7 416,39.5 	"/>
	<polygon points="418.9,27.1 417.7,31.8 423.3,30.5 	"/>
	<polygon points="391.8,20.9 390.8,25.3 394.8,23.9 	"/>
	<polygon points="400.5,9.9 400.5,16.1 405.1,13.4 	"/>
	<polygon points="377.4,3.2 381.5,9.3 385.1,2.1 	"/>
	<polygon points="372.3,-12.2 375.6,-7.9 377.5,-12.9 	"/>
	<polygon points="359.4,-12.1 363.1,-6.7 366.2,-12.2 	"/>
	<polygon points="340.9,-12.9 344.5,-10.6 344.5,-15.1 	"/>
	<polygon points="334.8,-17.6 340.9,-16.4 338.9,-21.3 	"/>
	<polygon points="322,-15.1 325.2,-15.7 323.3,-18.7 	"/>
	<polygon points="314,-16.4 317.9,-17.6 314.3,-20.3 	"/>
	<polygon points="301.7,-17.6 306,-20.3 301.7,-21.3 	"/>
	<polygon points="299.5,-12.1 303.4,-14 300.6,-16.4 	"/>
	<polygon points="299.5,-6.7 302.5,-9.2 299.5,-9.9 	"/>
	<polygon points="274,6.9 280.7,6.9 276.1,0.9 	"/>
	<polygon points="266.6,-2.4 271,3.2 274.8,-3.2 	"/>
	<polygon points="244.8,48.3 248.4,54 251.6,47.1 	"/>
	<polygon points="278.3,55.1 286.8,60.8 284.5,50.4 	"/>
	<polygon points="263.2,126 268.1,125.7 265.2,113.9 	"/>
	<polygon points="173.7,17.8 175.4,11.4 170.5,13 	"/>
	<polygon points="134.3,0.6 134.3,6.3 131.1,3.7 	"/>
	<polygon points="148.8,5.1 149.6,8.5 147.1,6.9 	"/>
	<polygon points="139.9,14.6 140.6,17.8 137.7,16.2 	"/>
	<polygon points="132.7,22.7 134.3,27.1 130.5,25.9 	"/>
	<polygon points="140.6,26 140.6,29.5 137.7,28.3 	"/>
	<polygon points="137.7,29.5 140.6,28.3 137.7,26.5 	"/>
	<polygon points="132.7,30.5 135.6,29.5 133.1,28 	"/>
	<polygon points="123.4,38.4 124.6,35.8 121.6,35.8 	"/>
	<polygon points="114.4,43.4 114.4,40.7 111.6,42 	"/>
	<polygon points="115.1,47.1 115.1,44.4 112.5,45.7 	"/>
	<polygon points="115.7,50.8 114.4,47.1 112.5,50.4 	"/>
	<polygon points="115.7,62.4 113.8,59.9 113,62.4 	"/>
	<polygon points="123.4,59.2 121.6,56.6 120.5,59.2 	"/>
	<polygon points="145.5,25.3 148.5,25.3 147.1,23.2 	"/>
	<polygon points="151.8,21.8 155,22.7 155.5,19.9 	"/>
	<polygon points="155.5,23.2 157.1,24.9 159.1,23.2 	"/>
	<polygon points="159.1,24.9 160.5,27.1 162.4,24.3 	"/>
	<polygon points="160.5,29.5 161.8,31.8 163.9,29.5 	"/>
	<polygon points="180.4,-11.5 182.2,-14.2 177.3,-13.4 	"/>
	<polygon points="123.4,33.7 127.5,34.7 124.6,35.8 	"/>
	<polygon points="126.9,30.5 129.5,31.8 127.5,33 	"/>
	<polygon points="169.4,-9.2 174.7,-9.2 171.7,-6.7 	"/>
	<polygon points="189.6,-16.9 192.4,-16.4 189.6,-14.5 	"/>
	<polygon points="192.4,-20.2 195.6,-18.8 192.8,-17.6 	"/>
	<polygon points="203.4,-19.5 206.3,-19.5 204.9,-21.8 	"/>
	<polygon points="210.3,-21.3 213.4,-20.2 213.4,-22.9 	"/>
	<polygon points="219.7,-27.7 221.7,-25.8 224.3,-28.3 	"/>
	<polygon points="228.7,-28.3 231.2,-27.1 233,-29.7 	"/>
	<polygon points="235,-28.4 237.4,-27.1 239.1,-29.7 	"/>
	<polygon points="246.8,-31.8 250.5,-30.9 251.6,-32.9 	"/>
	<polygon points="251.6,-30.1 254.4,-28.4 256.1,-30.9 	"/>
	<polygon points="254.1,-26.4 256.8,-24.7 259.7,-26.4 	"/>
</g>
<g>
	<g>
		<path class="st3" d="M47.9,129.8c0,24.4,0,120.3,0,155.7c0,35.4,68,35.4,68,0c0-35.4,0-39.3,0-39.3H93c0,0,0,26,0,38.5
			c0,12.6-22.9,11.8-22.9,0c0-11.8,0-139.2,0-149.4c0-10.2,21.3-11,21.3,0c0,11,0,37,0,37h25.3c0,0,0-20.5,0-37.7
			C116.7,99.9,47.9,99.9,47.9,129.8"/>
	</g>
	<g>
		<path class="st3" d="M159.4,136c0,15.7,0,26.7,0,26.7h22.9c0,0,0-12.6,0-27.5c0.8-12.6,26.1-12.6,26.1,0c0,12.6,0,49.5,0,49.5
			s-52.2,3.2-52.2,26c0,26.7,0,43.2,0,78.6c0,26,52.9,26,52.9,11l2.4,7.1h20.6c0,0,0-150.2,0-171.4C232.1,99.9,159.4,99.1,159.4,136
			 M207.6,282.3c0,18.1-27.7,16.5-27.7,0c0-18.9,0-47.2,0-60.6c0-13.4,27.7-17.3,27.7-17.3S207.6,264.2,207.6,282.3z"/>
	</g>
	<g>
		<rect x="275.6" y="111.7" class="st3" width="22.9" height="195"/>
	</g>
	<g>
		<path class="st3" d="M460.1,136.6c0,15.7,0,26.7,0,26.7h22.9c0,0,0-12.6,0-27.5c0.8-12.6,26.1-12.6,26.1,0c0,12.6,0,49.5,0,49.5
			s-52.2,3.2-52.2,25.9c0,26.7,0,43.2,0,78.6c0,25.9,53,25.9,53,11c0.5-2.2,2.4,7.1,2.4,7.1h20.6c0,0,0-150.2,0-171.4
			C532.9,100.5,460.1,99.7,460.1,136.6 M508.3,282.9c0,18.1-27.7,16.5-27.7,0c0-18.9,0-47.2,0-60.6c0-13.3,27.7-17.3,27.7-17.3
			S508.3,264.8,508.3,282.9z"/>
	</g>
	<g>
		<path class="st3" d="M393.5,67.3c0,0,0,34.9,0,49.8c-15.4-15.3-53-4.7-53.8,18.1c0,29.1,0,107.7,0,146.2c0,33,42.7,37.8,53.8,19.7
			c0,5.5,0,7.1,0,7.1h24.5V56.5 M393.4,279.1c0,15-29.3,18.9-29.3,0c0-18.9,0-118.7,0-135.2c0-16.5,29.3-15.7,29.3,0
			C393.4,159.6,393.4,264.2,393.4,279.1z"/>
	</g>
</g>
<g>
</g>
<g>
</g>
<g>
</g>
<g>
</g>
<g>
</g>
<g>
</g>
</svg>
