<?xml version="1.0" encoding="UTF-8" standalone="no"?>
<!-- Created with Inkscape (http://www.inkscape.org/) -->

<svg
   xmlns:dc="http://purl.org/dc/elements/1.1/"
   xmlns:cc="http://creativecommons.org/ns#"
   xmlns:rdf="http://www.w3.org/1999/02/22-rdf-syntax-ns#"
   xmlns:svg="http://www.w3.org/2000/svg"
   xmlns="http://www.w3.org/2000/svg"
   xmlns:sodipodi="http://sodipodi.sourceforge.net/DTD/sodipodi-0.dtd"
   xmlns:inkscape="http://www.inkscape.org/namespaces/inkscape"
   width="300"
   height="105.30911"
   id="svg2"
   version="1.1"
   inkscape:version="0.48.2 r9819"
   sodipodi:docname="New document 1">
  <defs
     id="defs4" />
  <sodipodi:namedview
     id="base"
     pagecolor="#ffffff"
     bordercolor="#666666"
     borderopacity="1.0"
     inkscape:pageopacity="0.0"
     inkscape:pageshadow="2"
     inkscape:zoom="1.979899"
     inkscape:cx="261.16041"
     inkscape:cy="-2.7655466"
     inkscape:document-units="px"
     inkscape:current-layer="layer1"
     showgrid="false"
     showguides="true"
     inkscape:guide-bbox="true"
     fit-margin-top="0.2"
     fit-margin-left="0.2"
     fit-margin-right="0.2"
     fit-margin-bottom="0.2"
     inkscape:window-width="1277"
     inkscape:window-height="1039"
     inkscape:window-x="638"
     inkscape:window-y="-21"
     inkscape:window-maximized="0">
    <inkscape:grid
       type="xygrid"
       id="grid2996"
       empspacing="5"
       visible="true"
       enabled="true"
       snapvisiblegridlinesonly="true" />
  </sodipodi:namedview>
  <metadata
     id="metadata7">
    <rdf:RDF>
      <cc:Work
         rdf:about="">
        <dc:format>image/svg+xml</dc:format>
        <dc:type
           rdf:resource="http://purl.org/dc/dcmitype/StillImage" />
        <dc:title></dc:title>
      </cc:Work>
    </rdf:RDF>
  </metadata>
  <g
     inkscape:label="Layer 1"
     inkscape:groupmode="layer"
     id="layer1"
     transform="translate(160.3875,-1481.5407)">
    <g
       id="g3947"
       transform="matrix(0.24509671,0,0,0.24509671,-120.92607,1197.7672)">
      <path
         inkscape:connector-curvature="0"
         style="font-size:medium;font-style:normal;font-variant:normal;font-weight:normal;font-stretch:normal;text-indent:0;text-align:start;text-decoration:none;line-height:normal;letter-spacing:normal;word-spacing:normal;text-transform:none;direction:ltr;block-progression:tb;writing-mode:lr-tb;text-anchor:start;baseline-shift:baseline;color:#000000;fill:#000000;fill-opacity:1;stroke:none;stroke-width:17.5;marker:none;visibility:visible;display:inline;overflow:visible;enable-background:accumulate;font-family:Sans;-inkscape-font-specification:Sans"
         d="m 542.18623,1405.7009 c -49.05553,0 -89.96875,40.2847 -89.96875,90.6875 0,47.4923 38.56923,89.7812 90.34375,89.7812 36.08295,0 58.92377,-21.4714 66.25,-29.5625 l -12.46875,-12.25 c -4.20961,5.0177 -22.41757,24.3125 -53.78125,24.3125 -42.287,0 -72.84375,-34.2123 -72.84375,-72.2812 0,-40.9745 32.95857,-73.1875 72.46875,-73.1875 33.68555,0 51.21875,20.9062 51.21875,20.9062 a 8.7551882,8.7551882 0 1 0 13.3125,-11.375 c 0,0 -23.37805,-27.0312 -64.53125,-27.0312 z"
         id="path3775" />
      <path
         inkscape:connector-curvature="0"
         id="path2998"
         d="m -70.21875,1405.7009 c -49.05553,0 -89.96875,40.2847 -89.96875,90.6875 0,47.4923 38.56923,89.7812 90.34375,89.7812 36.082943,0 58.923772,-21.4714 66.25,-29.5625 l -12.46875,-12.25 c -4.209614,5.0177 -22.417571,24.3125 -53.78125,24.3125 -42.287,0 -72.84375,-34.2123 -72.84375,-72.2812 0,-40.9745 32.95857,-73.1875 72.46875,-73.1875 33.685551,0 51.21875,20.9062 51.21875,20.9062 a 8.7551882,8.7551882 0 1 0 13.3125,-11.375 c 0,0 -23.378051,-27.0312 -64.53125,-27.0312 z"
         style="font-size:medium;font-style:normal;font-variant:normal;font-weight:normal;font-stretch:normal;text-indent:0;text-align:start;text-decoration:none;line-height:normal;letter-spacing:normal;word-spacing:normal;text-transform:none;direction:ltr;block-progression:tb;writing-mode:lr-tb;text-anchor:start;baseline-shift:baseline;color:#000000;fill:#000000;fill-opacity:1;stroke:none;stroke-width:17.5;marker:none;visibility:visible;display:inline;overflow:visible;enable-background:accumulate;font-family:Sans;-inkscape-font-specification:Sans" />
      <path
         inkscape:connector-curvature="0"
         id="path3777"
         d="m 115.34375,1405.5759 c -44.765897,0 -90.25,35.2264 -90.25,91.0312 0,50.831 41.977809,89.5 90.9375,89.5 55.99637,0 89.5,-47.4984 89.5,-90.125 0,-46.7682 -38.00797,-90.4062 -90.1875,-90.4062 z m 0,17.5 c 42.40503,0 72.6875,35.6186 72.6875,72.9062 0,33.5256 -25.89941,72.625 -72,72.625 -39.836029,0 -73.4375,-30.7482 -73.4375,-72 0,-46.384 37.019211,-73.5312 72.75,-73.5312 z"
         style="font-size:medium;font-style:normal;font-variant:normal;font-weight:normal;font-stretch:normal;text-indent:0;text-align:start;text-decoration:none;line-height:normal;letter-spacing:normal;word-spacing:normal;text-transform:none;direction:ltr;block-progression:tb;writing-mode:lr-tb;text-anchor:start;baseline-shift:baseline;color:#000000;fill:#000000;fill-opacity:1;stroke:none;stroke-width:17.5;marker:none;visibility:visible;display:inline;overflow:visible;enable-background:accumulate;font-family:Sans;-inkscape-font-specification:Sans" />
      <path
         inkscape:connector-curvature="0"
         id="path3779"
         d="m 389.15625,1405.4509 a 8.50085,8.50085 0 0 0 -7.75,5.3125 l -52.625,129 -52.5625,-128.9688 A 8.50085,8.50085 0 0 0 260,1412.4509 l -30.15625,163.9687 a 8.50085,8.50085 0 1 0 16.71875,3.0625 l 24.90625,-135.3125 49.4375,121.3438 a 8.50085,8.50085 0 0 0 15.75,0 l 49.5,-121.4688 26.03125,141.125 17.3125,0 -31.875,-172.75 a 8.50085,8.50085 0 0 0 -8.46875,-6.9687 z"
         style="font-size:medium;font-style:normal;font-variant:normal;font-weight:normal;font-stretch:normal;text-indent:0;text-align:start;text-decoration:none;line-height:normal;letter-spacing:normal;word-spacing:normal;text-transform:none;direction:ltr;block-progression:tb;writing-mode:lr-tb;text-anchor:start;baseline-shift:baseline;color:#000000;fill:#000000;fill-opacity:1;stroke:none;stroke-width:17;marker:none;visibility:visible;display:inline;overflow:visible;enable-background:accumulate;font-family:Sans;-inkscape-font-specification:Sans" />
      <path
         inkscape:connector-curvature="0"
         id="path3794"
         d="m 710.34375,1405.2634 a 8.50085,8.50085 0 0 0 -7.71875,5.2812 l -66.96875,164.3125 a 8.5074072,8.5074072 0 1 0 15.75,6.4375 L 710.5,1436.2634 l 60.71875,148.9687 18.375,0 -71.21875,-174.6875 a 8.50085,8.50085 0 0 0 -8.03125,-5.2812 z"
         style="font-size:medium;font-style:normal;font-variant:normal;font-weight:normal;font-stretch:normal;text-indent:0;text-align:start;text-decoration:none;line-height:normal;letter-spacing:normal;word-spacing:normal;text-transform:none;direction:ltr;block-progression:tb;writing-mode:lr-tb;text-anchor:start;baseline-shift:baseline;color:#000000;fill:#000000;fill-opacity:1;stroke:none;stroke-width:17;marker:none;visibility:visible;display:inline;overflow:visible;enable-background:accumulate;font-family:Sans;-inkscape-font-specification:Sans" />
      <path
         inkscape:connector-curvature="0"
         id="path3796"
         d="m 670.89181,1501.1696 0,17.5 75.96971,0 0,-17.5 -75.96971,0 z"
         style="font-size:medium;font-style:normal;font-variant:normal;font-weight:normal;font-stretch:normal;text-indent:0;text-align:start;text-decoration:none;line-height:normal;letter-spacing:normal;word-spacing:normal;text-transform:none;direction:ltr;block-progression:tb;writing-mode:lr-tb;text-anchor:start;baseline-shift:baseline;color:#000000;fill:#000000;fill-opacity:1;stroke:none;stroke-width:17.5;marker:none;visibility:visible;display:inline;overflow:visible;enable-background:accumulate;font-family:Sans;-inkscape-font-specification:Sans" />
      <path
         inkscape:connector-curvature="0"
         id="path3811"
         d="m 868.9375,1405.8259 c -12.52433,0 -25.05909,3.1542 -35.03125,10.4687 -9.97216,7.3146 -16.90625,19.3585 -16.90625,34.0938 0,12.837 4.77984,23.3293 12.84375,30.6562 8.06391,7.3269 18.43744,12.2807 31.40625,18.9688 a 8.750875,8.750875 0 0 0 0.125,0.062 c 13.16572,6.502 24.76959,11.7574 32.1875,17.5312 7.41791,5.7739 10.875,10.8307 10.875,20.7813 0,9.6776 -3.72503,16.6999 -9.8125,21.9062 -6.08747,5.2064 -14.79848,8.3438 -24.28125,8.3438 -22.49485,0 -39.37066,-14.5875 -45.3125,-20.5313 l -12.9375,11.8125 c 7.36494,7.6156 28.38116,26.2188 58.25,26.2188 13.27748,0 26.01511,-4.2857 35.65625,-12.5313 9.64114,-8.2455 15.9375,-20.7007 15.9375,-35.2187 0,-15.0829 -7.55163,-26.7217 -17.625,-34.5625 -10.03939,-7.8144 -22.35837,-13.1064 -35.0625,-19.375 -0.043,-0.021 -0.082,-0.041 -0.125,-0.062 -12.99794,-6.7037 -22.34573,-11.5981 -27.5,-16.2813 -5.17327,-4.7004 -7.125,-8.4283 -7.125,-17.7187 0,-9.6799 3.66581,-15.5143 9.78125,-20 6.11544,-4.4857 15.14836,-7.0625 24.65625,-7.0625 16.87007,0 31.125,9.2187 31.125,9.2187 a 8.750875,8.750875 0 1 0 9.71875,-14.5312 c 0,0 -17.73328,-12.1875 -40.84375,-12.1875 z"
         style="font-size:medium;font-style:normal;font-variant:normal;font-weight:normal;font-stretch:normal;text-indent:0;text-align:start;text-decoration:none;line-height:normal;letter-spacing:normal;word-spacing:normal;text-transform:none;direction:ltr;block-progression:tb;writing-mode:lr-tb;text-anchor:start;baseline-shift:baseline;color:#000000;fill:#000000;fill-opacity:1;stroke:none;stroke-width:17.5;marker:none;visibility:visible;display:inline;overflow:visible;enable-background:accumulate;font-family:Sans;-inkscape-font-specification:Sans" />
      <path
         inkscape:connector-curvature="0"
         id="path3813"
         d="m 952.40625,1406.7321 a 8.750875,8.750875 0 1 0 0,17.5 l 100.90625,0 a 8.750875,8.750875 0 1 0 0,-17.5 l -100.90625,0 z"
         style="font-size:medium;font-style:normal;font-variant:normal;font-weight:normal;font-stretch:normal;text-indent:0;text-align:start;text-decoration:none;line-height:normal;letter-spacing:normal;word-spacing:normal;text-transform:none;direction:ltr;block-progression:tb;writing-mode:lr-tb;text-anchor:start;baseline-shift:baseline;color:#000000;fill:#000000;fill-opacity:1;stroke:none;stroke-width:17.5;marker:none;visibility:visible;display:inline;overflow:visible;enable-background:accumulate;font-family:Sans;-inkscape-font-specification:Sans" />
      <path
         inkscape:connector-curvature="0"
         id="path3815"
         d="m 994.75,1417.7321 0,8.25 0,150.9688 0,8.25 16.5,0 0,-8.25 0,-150.9688 0,-8.25 -16.5,0 z"
         style="font-size:medium;font-style:normal;font-variant:normal;font-weight:normal;font-stretch:normal;text-indent:0;text-align:start;text-decoration:none;line-height:normal;letter-spacing:normal;word-spacing:normal;text-transform:none;direction:ltr;block-progression:tb;writing-mode:lr-tb;text-anchor:start;baseline-shift:baseline;color:#000000;fill:#000000;fill-opacity:1;stroke:none;stroke-width:16.5;marker:none;visibility:visible;display:inline;overflow:visible;enable-background:accumulate;font-family:Sans;-inkscape-font-specification:Sans" />
      <g
         transform="matrix(1.1452003,0,0,1.1452003,388.66843,2039.8504)"
         id="g3886">
        <g
           transform="translate(-96.974644,-783.87837)"
           id="g3898">
          <path
             id="path3862"
             d="M 46.569,58.862 C 35.187,69.142 31.042,92.434 51.562,106.05 L 133.425,162.078 93.732,71.362 C 85.415,49.955 62.662,45.286 46.569,58.862"
             style="fill:#f37021"
             inkscape:connector-curvature="0" />
          <path
             id="path3864"
             d="m 117.036,14.755 c -13.308,0.27 -33.289,16.079 -24.395,40.218 l 41.052,96.585 14.424,-101.589 C 151.455,24.726 132.308,13.073 117.036,14.755"
             style="fill:#cc004c"
             inkscape:connector-curvature="0" />
          <path
             id="path3866"
             d="m 154.524,46.094 h 7.763 c 0,0 4.145,0 4.708,1.951 -3.054,2.489 -11.368,2.8 -10.266,16.093 l 13.051,87.406 40.771,-96.839 c 8.341,-21.622 -9.165,-39.68 -24.692,-40.232 -0.726,-0.053 -1.453,-0.095 -2.206,-0.095 -13.939,0 -29.909,10.106 -29.129,31.716"
             style="fill:#6460aa"
             inkscape:connector-curvature="0" />
          <path
             id="path3868"
             d="m 208.911,72.184 -38.564,89.628 81.836,-56.324 c 18.866,-13.348 15.824,-34.689 5.263,-45.238 -4.428,-4.965 -12.555,-8.8 -21.165,-8.8 -10.174,-0.002 -21.059,5.381 -27.37,20.734"
             style="fill:#0089d0"
             inkscape:connector-curvature="0" />
          <path
             id="path3870"
             d="m 243.021,118.242 -76.856,53.554 h 94.632 c 19.415,0 31.89,-19.97 26.345,-38.296 -3.714,-11.518 -14.707,-20.56 -27.463,-20.573 -5.369,10e-4 -11.062,1.615 -16.658,5.315"
             style="fill:#0db14b"
             inkscape:connector-curvature="0" />
          <path
             id="path3872"
             d="m 44.363,171.796 h 93.234 L 60.724,118.242 c -17.761,-11.384 -37.729,-4.723 -44.94,14.167 -6.11,21.625 9.149,39.387 28.579,39.387"
             style="fill:#fcb711"
             inkscape:connector-curvature="0" />
        </g>
      </g>
    </g>
  </g>
</svg>
