<?xml version="1.0" encoding="utf-8"?>
<!-- Generator: Adobe Illustrator 19.0.0, SVG Export Plug-In . SVG Version: 6.00 Build 0)  -->
<svg version="1.1" id="Layer_1" xmlns="http://www.w3.org/2000/svg" xmlns:xlink="http://www.w3.org/1999/xlink" x="0px" y="0px"
	 viewBox="0 0 480 279.1" style="enable-background:new 0 0 480 279.1;" xml:space="preserve">
<style type="text/css">
	.st0{fill:#3E89B8;}
	.st1{fill:#1E517D;}
	.st2{fill:#246C8C;}
	.st3{stroke:#FFFFFF;stroke-width:5;stroke-miterlimit:10;}
	.st4{fill:#FFFFFF;}
	.st5{fill:#565656;}
</style>
<polygon id="XMLID_435_" class="st0" points="123.1,140 34,84.9 123.1,30.9 212.1,84.9 "/>
<polygon id="XMLID_434_" class="st1" points="121.1,242.9 32,191.5 31.8,89.1 120.9,142.8 "/>
<polygon id="XMLID_433_" class="st2" points="125.4,242.9 214.5,191.5 214.6,89.1 125.6,142.8 "/>
<polygon id="XMLID_421_" class="st3" points="81.9,116.3 123.1,92.5 164.2,116.3 164.2,163.8 123.1,187.5 81.9,163.8 "/>
<circle id="XMLID_420_" class="st4" cx="123.1" cy="126.6" r="10.1"/>
<path id="XMLID_419_" class="st4" d="M133.6,157.4c-6.7,0-13.5,0-20.2,0c1.7-8.3,3.3-16.7,5-25c3.1,0,6.1,0,9.2,0
	C129.6,140.8,131.6,149.1,133.6,157.4z"/>
<g id="XMLID_407_">
	<path id="XMLID_409_" class="st5" d="M265.8,128.6 M235.6,104.6h-2.4 M263.4,130.5 M316,130.5 M258.7,95.1v39.3h61.8
		c0-18.3,0-21,0-39.3h18.7v93.4h-18.7c0-12.9,0-25.6,0-38.4h-61.8v38.4h-18.5V95.1H258.7z"/>
</g>
<g id="XMLID_356_">
	<g id="XMLID_25_">
		<path id="XMLID_26_" class="st5" d="M448.6,104.3V103c0-2-2-6.1-4.4-6.1c-18.7,0-15.2,0-33.9,0v-6c18.7,0,15.2,0,33.9,0
			c2.4,0,4.4-1.7,4.4-3.7V82c0-2.1-2-3.8-4.4-3.8c-18.7,0-15.2,0-33.9,0v-5.9h33.9c6.4,0,11.5,4.3,11.5,9.7v7.6c0,2.6-1.2,5-3.2,6.7
			c2,1.7,3.2,4.1,3.2,6.7v1.4c0,5.3-5.1,9.7-11.5,9.7h-33.9V108c18.7,0,15.2,0,33.9,0C446.6,108,448.6,106.4,448.6,104.3z"/>
	</g>
</g>
<path id="XMLID_336_" class="st5" d="M375.9,120.1 M396.7,95.7c0,35.1,0,57.2,0,92.3h-18.5V95.7H396.7z"/>
</svg>
