<?xml version="1.0" encoding="utf-8"?>
<!-- Generator: Adobe Illustrator 20.0.0, SVG Export Plug-In . SVG Version: 6.00 Build 0)  -->
<svg version="1.1" id="Layer_1" xmlns="http://www.w3.org/2000/svg" xmlns:xlink="http://www.w3.org/1999/xlink" x="0px" y="0px"
	 viewBox="0 0 675.9 244.9" style="enable-background:new 0 0 675.9 244.9;" xml:space="preserve">
<style type="text/css">
	.st0{fill:#D56535;}
	.st1{fill:#C4372F;}
	.st2{fill:#D05B33;}
	.st3{fill:#E18139;}
	.st4{fill:#F09F3E;}
	.st5{fill:#C12C2E;}
	.st6{fill:#DC7737;}
	.st7{fill:#D25F34;}
	.st8{fill:#DE7B38;}
	.st9{fill:#E9913C;}
	.st10{fill:#D86D36;}
	.st11{fill:#E88F3B;}
	.st12{fill:#F4A63F;}
	.st13{fill:#CB4B31;}
	.st14{fill:#C1282E;}
	.st15{fill:#CA4931;}
	.st16{fill:#CF5833;}
	.st17{fill:#DB7537;}
	.st18{fill:#E78D3B;}
	.st19{fill:#D76B36;}
	.st20{fill:#E68B3B;}
	.st21{fill:#F9AD40;}
	.st22{fill:#C94631;}
	.st23{fill:#C4352F;}
	.st24{fill:#C84430;}
	.st25{fill:#D15D34;}
	.st26{fill:#DD7938;}
	.st27{fill:#E5893A;}
	.st28{fill:#D66935;}
	.st29{fill:#E4873A;}
	.st30{fill:#F3A33E;}
	.st31{fill:#C74130;}
	.st32{fill:#C0252E;}
	.st33{fill:#C73F30;}
	.st34{fill:#CF5633;}
	.st35{fill:#DA7337;}
	.st36{fill:#E3853A;}
	.st37{fill:#D56735;}
	.st38{fill:#E28339;}
	.st39{fill:#F8AB3F;}
	.st40{fill:#C63C30;}
	.st41{fill:#C3322F;}
	.st42{fill:#C53A2F;}
	.st43{fill:#DF7D38;}
	.st44{fill:#D36134;}
	.st45{fill:#CE5432;}
	.st46{fill:#DA7137;}
	.st47{fill:#CD5232;}
	.st48{fill:#C22F2E;}
	.st49{fill:#EE9A3D;}
	.st50{fill:#F6A83F;}
	.st51{fill:#EC983D;}
	.st52{fill:#E07F39;}
	.st53{fill:#D46334;}
	.st54{fill:#CC5032;}
	.st55{fill:#D96F36;}
	.st56{fill:#CB4D32;}
	.st57{fill:#BF222D;}
	.st58{fill:#EB963C;}
	.st59{fill:#F1A13E;}
	.st60{fill:#EA933C;}
	.st61{fill:#BE1E2D;}
	.st62{fill:#FBB040;}
	.st63{fill:#EF9C3D;}
</style>
<g>
	<g>
		<polygon class="st0" points="0,136 23.6,122.4 47.1,108.8 47.1,136 47.1,163.2 23.6,149.6 		"/>
		<polygon class="st1" points="0,190.4 23.6,176.8 47.1,163.2 47.1,190.4 47.1,217.7 23.6,204 		"/>
		<polygon class="st2" points="47.1,163.2 23.6,176.8 0,190.4 0,163.2 0,136 23.6,149.6 		"/>
		<polygon class="st3" points="0,81.6 23.6,68 47.1,54.4 47.1,81.6 47.1,108.8 23.6,95.2 		"/>
		<polygon class="st4" points="47.1,54.4 23.6,68 0,81.6 0,54.4 0,27.2 23.6,40.8 		"/>
		<polygon class="st5" points="47.1,217.7 23.6,231.3 0,244.9 0,217.7 0,190.4 23.6,204 		"/>
		<polygon class="st6" points="47.1,108.8 23.6,122.4 0,136 0,108.8 0,81.6 23.6,95.2 		"/>
		<polygon class="st7" points="115.7,163.2 92.1,176.8 68.5,190.4 68.5,163.2 68.5,136 92.1,149.6 		"/>
		<polygon class="st8" points="115.7,108.8 92.1,122.4 68.5,136 68.5,108.8 68.5,81.6 92.1,95.2 		"/>
		<polygon class="st9" points="162.7,81.6 139.1,95.2 115.5,108.8 115.5,81.6 115.5,54.4 139.1,68 		"/>
		<polygon class="st10" points="68.5,136 92.1,122.4 115.7,108.8 115.7,136 115.7,163.2 92.1,149.6 		"/>
		<polygon class="st11" points="68.5,81.6 92.1,68 115.7,54.4 115.7,81.6 115.7,108.8 92.1,95.2 		"/>
		<polygon class="st12" points="115.5,54.4 139.1,40.8 162.7,27.2 162.7,54.4 162.7,81.6 139.1,68 		"/>
		<polygon class="st13" points="162.7,190.4 139.1,204 115.5,217.7 115.5,190.4 115.5,163.2 139.1,176.8 		"/>
		<polygon class="st14" points="115.5,217.7 139.1,204 162.7,190.4 162.7,217.7 162.7,244.9 139.1,231.3 		"/>
		<polygon class="st15" points="68.5,190.4 92.1,176.8 115.7,163.2 115.7,190.4 115.7,217.7 92.1,204 		"/>
		<polygon class="st16" points="209.6,163.2 233.1,176.8 256.7,190.4 256.7,163.2 256.7,136 233.1,149.6 		"/>
		<polygon class="st17" points="209.6,108.8 233.1,122.4 256.7,136 256.7,108.8 256.7,81.6 233.1,95.2 		"/>
		<polygon class="st18" points="162.5,81.6 186.1,95.2 209.7,108.8 209.7,81.6 209.7,54.4 186.1,68 		"/>
		<polygon class="st19" points="256.7,136 233.1,122.4 209.6,108.8 209.6,136 209.6,163.2 233.1,149.6 		"/>
		<polygon class="st20" points="256.7,81.6 233.1,68 209.6,54.4 209.6,81.6 209.6,108.8 233.1,95.2 		"/>
		<polygon class="st21" points="209.7,54.4 186.1,40.8 162.5,27.2 162.5,54.4 162.5,81.6 186.1,68 		"/>
		<polygon class="st22" points="162.5,190.4 186.1,204 209.7,217.7 209.7,190.4 209.7,163.2 186.1,176.8 		"/>
		<polygon class="st23" points="209.7,217.7 186.1,204 162.5,190.4 162.5,217.7 162.5,244.9 186.1,231.3 		"/>
		<polygon class="st24" points="256.7,190.4 233.1,176.8 209.6,163.2 209.6,190.4 209.6,217.7 233.1,204 		"/>
		<polygon class="st25" points="534.8,163.2 511.3,176.8 487.7,190.4 487.7,163.2 487.7,136 511.3,149.6 		"/>
		<polygon class="st26" points="534.8,108.8 511.3,122.4 487.7,136 487.7,108.8 487.7,81.6 511.3,95.2 		"/>
		<polygon class="st27" points="581.8,81.6 558.3,95.2 534.7,108.8 534.7,81.6 534.7,54.4 558.3,68 		"/>
		<polygon class="st28" points="487.7,136 511.3,122.4 534.8,108.8 534.8,136 534.8,163.2 511.3,149.6 		"/>
		<polygon class="st29" points="487.7,81.6 511.3,68 534.8,54.4 534.8,81.6 534.8,108.8 511.3,95.2 		"/>
		<polygon class="st30" points="534.7,54.4 558.3,40.8 581.8,27.2 581.8,54.4 581.8,81.6 558.3,68 		"/>
		<polygon class="st31" points="581.8,190.4 558.3,204 534.7,217.7 534.7,190.4 534.7,163.2 558.3,176.8 		"/>
		<polygon class="st32" points="534.7,217.7 558.3,204 581.8,190.4 581.8,217.7 581.8,244.9 558.3,231.3 		"/>
		<polygon class="st33" points="487.7,190.4 511.3,176.8 534.8,163.2 534.8,190.4 534.8,217.7 511.3,204 		"/>
		<polygon class="st34" points="628.7,163.2 652.3,176.8 675.9,190.4 675.9,163.2 675.9,136 652.3,149.6 		"/>
		<polygon class="st35" points="628.7,108.8 652.3,122.4 675.9,136 675.9,108.8 675.9,81.6 652.3,95.2 		"/>
		<polygon class="st36" points="581.7,81.6 605.3,95.2 628.8,108.8 628.8,81.6 628.8,54.4 605.3,68 		"/>
		<polygon class="st37" points="675.9,136 652.3,122.4 628.7,108.8 628.7,136 628.7,163.2 652.3,149.6 		"/>
		<polygon class="st38" points="675.9,81.6 652.3,68 628.7,54.4 628.7,81.6 628.7,108.8 652.3,95.2 		"/>
		<polygon class="st39" points="628.8,54.4 605.3,40.8 581.7,27.2 581.7,54.4 581.7,81.6 605.3,68 		"/>
		<polygon class="st40" points="581.7,190.4 605.3,204 628.8,217.7 628.8,190.4 628.8,163.2 605.3,176.8 		"/>
		<polygon class="st41" points="628.8,217.7 605.3,204 581.7,190.4 581.7,217.7 581.7,244.9 605.3,231.3 		"/>
		<polygon class="st42" points="675.9,190.4 652.3,176.8 628.7,163.2 628.7,190.4 628.7,217.7 652.3,204 		"/>
		<polygon class="st43" points="419.2,108.8 442.7,95.2 466.3,81.6 466.3,108.8 466.3,136 442.7,122.4 		"/>
		<polygon class="st44" points="419.2,163.2 442.7,149.6 466.3,136 466.3,163.2 466.3,190.4 442.7,176.8 		"/>
		<polygon class="st45" points="372.2,190.4 395.7,176.8 419.3,163.2 419.3,190.4 419.3,217.7 395.7,204 		"/>
		<polygon class="st46" points="466.3,136 442.7,149.6 419.2,163.2 419.2,136 419.2,108.8 442.7,122.4 		"/>
		<polygon class="st47" points="466.3,190.4 442.7,204 419.2,217.7 419.2,190.4 419.2,163.2 442.7,176.8 		"/>
		<polygon class="st48" points="419.3,217.7 395.7,231.3 372.2,244.9 372.2,217.7 372.2,190.4 395.7,204 		"/>
		<polygon class="st49" points="372.2,81.6 395.7,68 419.3,54.4 419.3,81.6 419.3,108.8 395.7,95.2 		"/>
		<polygon class="st50" points="419.3,54.4 395.7,68 372.2,81.6 372.2,54.4 372.2,27.2 395.7,40.8 		"/>
		<polygon class="st51" points="466.3,81.6 442.7,95.2 419.2,108.8 419.2,81.6 419.2,54.4 442.7,68 		"/>
		<polygon class="st52" points="325.3,108.8 301.7,95.2 278.1,81.6 278.1,108.8 278.1,136 301.7,122.4 		"/>
		<polygon class="st53" points="325.3,163.2 301.7,149.6 278.1,136 278.1,163.2 278.1,190.4 301.7,176.8 		"/>
		<polygon class="st54" points="372.3,190.4 348.7,176.8 325.2,163.2 325.2,190.4 325.2,217.7 348.7,204 		"/>
		<polygon class="st55" points="278.1,136 301.7,149.6 325.3,163.2 325.3,136 325.3,108.8 301.7,122.4 		"/>
		<polygon class="st56" points="278.1,190.4 301.7,204 325.3,217.7 325.3,190.4 325.3,163.2 301.7,176.8 		"/>
		<polygon class="st57" points="325.2,217.7 348.7,231.3 372.3,244.9 372.3,217.7 372.3,190.4 348.7,204 		"/>
		<polygon class="st58" points="372.3,81.6 348.7,68 325.2,54.4 325.2,81.6 325.2,108.8 348.7,95.2 		"/>
		<polygon class="st59" points="325.2,54.4 348.7,68 372.3,81.6 372.3,54.4 372.3,27.2 348.7,40.8 		"/>
		<polygon class="st60" points="278.1,81.6 301.7,95.2 325.3,108.8 325.3,81.6 325.3,54.4 301.7,68 		"/>
		<polygon class="st61" points="628.7,217.7 652.2,204 675.8,190.4 675.8,217.7 675.8,244.9 652.2,231.3 		"/>
		<polygon class="st62" points="466.2,27.2 442.7,40.8 419.1,54.4 419.1,27.2 419.1,0 442.7,13.6 		"/>
		<polygon class="st63" points="419.1,54.4 442.7,40.8 466.2,27.2 466.2,54.4 466.2,81.6 442.7,68 		"/>
	</g>
</g>
</svg>
