<svg id="ISOC-Society-logo" xmlns="http://www.w3.org/2000/svg" viewBox="0 0 850.39 283.46"><defs><style>.cls-1{fill:#0c1c2c;}</style></defs><title>-Dark-RGBISOC-Society-logo</title><path class="cls-1" d="M179.43,196.86a4.21,4.21,0,0,1,4.11-3.74h73.65a135.66,135.66,0,0,0,10.89-82.22H223a4.12,4.12,0,0,1-4-3.74q-.46-5.71-1.11-11.3a3.25,3.25,0,0,1,3.3-3.73h42.13A135.18,135.18,0,0,0,135.12,0c-2.68,0-5.33.09-8,.24-3.56,6-7.6,16.16-11.23,32.57q-.63,2.88-1.23,5.9a4.72,4.72,0,0,1-4.45,3.69H98.69a3,3,0,0,1-3.09-3.69q1-5.15,2-9.94A177.35,177.35,0,0,1,105,3.38a135.24,135.24,0,0,0-81.05,55H88.78a3.23,3.23,0,0,1,3.28,3.72q-.67,5.53-1.24,11.31a4.21,4.21,0,0,1-4.11,3.74H13.05A135.65,135.65,0,0,0,2.17,159.34H47.28a4.12,4.12,0,0,1,4,3.74q.46,5.71,1.11,11.3a3.25,3.25,0,0,1-3.3,3.73H7a135.18,135.18,0,0,0,128.14,92.13c2.67,0,5.33-.09,8-.24,3.56-6,7.6-16.16,11.23-32.57q.64-2.88,1.23-5.9a4.72,4.72,0,0,1,4.45-3.69h11.56a3,3,0,0,1,3.09,3.69q-.95,5.15-2,9.94a177.76,177.76,0,0,1-7.37,25.39,135.24,135.24,0,0,0,81.05-55H181.47a3.23,3.23,0,0,1-3.28-3.72Q178.86,202.63,179.43,196.86Zm-49.76-86a3.57,3.57,0,0,1-3.6-3.75q.25-5.72.59-11.27a4.06,4.06,0,0,1,4-3.75h64a4.38,4.38,0,0,1,4.24,3.72q.7,5.58,1.19,11.3a3.4,3.4,0,0,1-3.45,3.74ZM220,129.31q0,2.81,0,5.63a344.12,344.12,0,0,1-2.23,39.44,4.33,4.33,0,0,1-4.21,3.73H202.18a3.21,3.21,0,0,1-3.27-3.72,321.53,321.53,0,0,0,2.41-39.44q0-2.82-.05-5.63a3.66,3.66,0,0,1,3.67-3.75h11.27A3.84,3.84,0,0,1,220,129.31ZM184.31,29.79a110.93,110.93,0,0,1,16.33,9.32,25.1,25.1,0,0,1,8.28,11.61c2.11,7.22,3.94,14.81,5.46,22.71a3,3,0,0,1-3.07,3.69H199.67a4.78,4.78,0,0,1-4.49-3.68,195.47,195.47,0,0,0-12-38.86c-.49-1.11-1-2.24-1.54-3.37C180.84,29.55,182.59,29,184.31,29.79ZM109.67,73.39q.59-5.79,1.3-11.31a4.39,4.39,0,0,1,4.24-3.72h56a4.36,4.36,0,0,1,4.14,3.37L178,73.43a3,3,0,0,1-3.07,3.69H113.06A3.33,3.33,0,0,1,109.67,73.39ZM89.06,95.88a4,4,0,0,1,4-3.75h11.3a3.48,3.48,0,0,1,3.52,3.75c-.76,12.62-1.16,25.85-1.16,39.42q0,2.83,0,5.63a3.71,3.71,0,0,1-3.71,3.75H91.75A3.8,3.8,0,0,1,88,140.93q0-2.8,0-5.63C87.94,121.78,88.32,108.55,89.06,95.88Zm51.51,63.46a3.57,3.57,0,0,1,3.6,3.75q-.24,5.72-.59,11.27a4.06,4.06,0,0,1-4,3.75h-64a4.38,4.38,0,0,1-4.24-3.72q-.69-5.58-1.19-11.3a3.4,3.4,0,0,1,3.45-3.74ZM50.2,140.93q0-2.81,0-5.63a344.25,344.25,0,0,1,2.23-39.44,4.33,4.33,0,0,1,4.21-3.73H68.06a3.21,3.21,0,0,1,3.27,3.72,321.63,321.63,0,0,0-2.41,39.44q0,2.82.05,5.63a3.66,3.66,0,0,1-3.67,3.75H54A3.84,3.84,0,0,1,50.2,140.93Zm35.74,99.52a110.89,110.89,0,0,1-16.33-9.32,25.11,25.11,0,0,1-8.28-11.6c-2.11-7.22-3.94-14.81-5.46-22.71a3,3,0,0,1,3.07-3.69H70.57a4.78,4.78,0,0,1,4.49,3.68,195.44,195.44,0,0,0,12,38.86c.49,1.11,1,2.24,1.54,3.37C89.4,240.7,87.66,241.26,85.94,240.45Zm73.34-32.28a4.39,4.39,0,0,1-4.25,3.72H99a4.37,4.37,0,0,1-4.15-3.37l-2.56-11.71a3,3,0,0,1,3.07-3.69h61.84a3.33,3.33,0,0,1,3.39,3.73Q160,202.65,159.28,208.17Zm17.92-30.06H165.9a3.48,3.48,0,0,1-3.52-3.75c.76-12.62,1.15-25.85,1.15-39.42q0-2.83,0-5.63a3.71,3.71,0,0,1,3.71-3.75h11.26a3.8,3.8,0,0,1,3.79,3.75q0,2.81,0,5.63c0,13.52-.38,26.75-1.13,39.42A4,4,0,0,1,177.2,178.11Zm319-58.12c-8.78,0-16-3.06-21.11-8.76-4.07-4.54-6.09-11-6.09-19.82V59.79H458.52c-1.67,0-2.68-1.66-3-3,0,0-1.16-7.44-1.58-9.21s.42-3,3-3H469V27.8a3,3,0,0,1,3-3h10.7a3,3,0,0,1,3.05,3V44.6h16.54c2.6,0,3.44,1.23,3,3s-1.58,9.21-1.58,9.21c-.34,1.32-1.35,3-3,3h-15V92.2c0,3.72.27,6.6,1.83,8.4,1.68,2,5.29,3.4,9,3.4.88,0,2-.07,3.06-.16a2.61,2.61,0,0,1,3,2.63l-.11,10.09a3.38,3.38,0,0,1-3.05,3.28A31.31,31.31,0,0,1,496.24,120Zm-28,96.62c0,21.93-16.43,38.42-38.19,38.42s-38.12-16.49-38.12-38.42,16.4-38.42,38.12-38.42S468.25,194.68,468.25,216.62Zm-16.75,0c0-12.8-9.17-22.49-21.44-22.49s-21.37,9.7-21.37,22.49,9.2,22.49,21.37,22.49S451.5,229.45,451.5,216.62ZM398.37,115.43V68.56c3.71-4.44,8.54-9.54,17.92-9.54,5.47,0,9.22,2.35,12.28,6.61,2.33,3.17,4,6.28,4,15.92v33.88a3,3,0,0,0,3,3h10.68a3,3,0,0,0,3-3V82.3c0-11.91-2.23-19.74-7.28-26.15-6.48-8.29-14.77-13.07-25.37-13.07-9.78,0-15,4.12-18.79,7V47.34a2.89,2.89,0,0,0-3-2.74H384.69a3,3,0,0,0-3,3v67.83a3,3,0,0,0,3,3h10.65A3,3,0,0,0,398.37,115.43Zm-76,3h42.67a3,3,0,0,0,3-3V106.2a3,3,0,0,0-3-3h-13V32.37h12.23a3,3,0,0,0,3-3V20.09a3,3,0,0,0-3-3H322.94a3,3,0,0,0-3.08,3v9.25a3.06,3.06,0,0,0,3.08,3h12.46v70.78h-13a3,3,0,0,0-3,3v9.23A3,3,0,0,0,322.38,118.46Zm275.26,0h10.66a3,3,0,0,0,3-3V70.21c4-6.59,11.4-11.19,18.23-11.19a29.75,29.75,0,0,1,3.7.24,2.31,2.31,0,0,0,2.91-2.33V46.42c0-1.67-1.09-3.18-2.47-3.26-.91,0-1.78-.09-2.49-.09-9.23,0-16.23,3.7-20.32,7.83V47.6a3,3,0,0,0-3-3H597.63a3,3,0,0,0-3,3v67.83A3,3,0,0,0,597.63,118.46Zm-228.47,83.6c-4.25-2.87-9.89-5.05-14.9-7.18-9.67-4.08-18.23-7.44-18.23-15.11,0-8,7.19-12.31,14.79-12.31a29,29,0,0,1,15.58,5,2.89,2.89,0,0,0,3.92-.39l6.09-7.55a2.76,2.76,0,0,0-.43-3.93,41.18,41.18,0,0,0-25.75-9c-17.31,0-30.88,11.91-30.88,27.19,0,9.29,4.36,16.85,13,22.56a82.66,82.66,0,0,0,14,6.77c10,4.14,18.79,8.08,18.79,17.69,0,7.87-6.22,13.05-15.44,13.05-9.73,0-16.8-5.06-22.17-10.37a2.68,2.68,0,0,0-3.82-.16l-7.19,7.14a3,3,0,0,0-.19,4.1A45,45,0,0,0,350.4,255c18.28,0,31.56-12.4,31.56-29.57C382,215.75,378,207.9,369.16,202.06Zm178.82,33-8-5.78a3.25,3.25,0,0,0-4.31.57c-5.31,6.2-11.6,9.23-18.59,9.23-13.29,0-22.64-9.3-22.64-22.51,0-12.8,9.35-22.47,21.76-22.47,8.29,0,14.19,4.64,17.75,8.92a2.87,2.87,0,0,0,4.11.47l7.82-6.58a3.13,3.13,0,0,0,.5-4.33,39,39,0,0,0-30.18-14.43c-22,0-38.47,16.48-38.47,38.43S494.63,255,517.06,255c12.38,0,24.92-6,31.75-15.64A3.14,3.14,0,0,0,548,235.11ZM847.38,59.79a3,3,0,0,0,3-3V47.6a3,3,0,0,0-3-3h-14V27.8a3,3,0,0,0-3.05-3h-10.7a3,3,0,0,0-3,3V44.6h-12.1c-2.59,0-3.45,1.23-3,3s1.58,9.21,1.58,9.21c.34,1.32,1.35,3,3,3h10.52V91.41c0,8.82,2,15.28,6.09,19.82,5.07,5.71,12.33,8.76,21.12,8.76a31.26,31.26,0,0,0,3.3-.14,3.38,3.38,0,0,0,3.05-3.28l.11-10.09a2.61,2.61,0,0,0-3-2.63c-1.1.09-2.18.16-3.06.16-3.73,0-7.34-1.38-9-3.4-1.57-1.8-1.83-4.68-1.83-8.4V59.79ZM711.6,182.53a3.53,3.53,0,0,0-3.34-2.8h-13v-16.8a3,3,0,0,0-3.05-3h-10.7a3,3,0,0,0-3,3v16.8h-12.1c-2.59,0-3.45,1.23-3,3s1.58,9.21,1.58,9.21c.34,1.32,1.35,3,3,3h10.52v31.62c0,8.82,2,15.28,6.08,19.82,5.07,5.71,12.33,8.76,21.12,8.76a31,31,0,0,0,3.3-.15,3.38,3.38,0,0,0,3.05-3.28l.11-10.09a2.61,2.61,0,0,0-3-2.63c-1.1.09-2.18.16-3.06.16-3.73,0-7.34-1.38-9-3.4-1.57-1.8-1.83-4.68-1.83-8.4V194.93l16.76-.05c1.54,0,3.35-.62,2.79-2.79Zm-137.37-2.8H563.55a3,3,0,0,0-3.07,3v67.83a3,3,0,0,0,3.07,3h10.68a3,3,0,0,0,3-3V182.7A3,3,0,0,0,574.23,179.74ZM797.91,81.56c0,.32,0,1.17-.1,2.09-.08,1.14-1.5,2-3.2,2H742.73a22,22,0,0,0,21.86,19.38c8.59,0,14-3.43,18.47-8a3,3,0,0,1,4.25-.15l6.61,6.34a3.22,3.22,0,0,1,.29,4.38c-4.78,5.16-14,12.35-29.78,12.35-21.71,0-38.1-16.52-38.1-38.44,0-22.29,15.15-38.48,36-38.48C782.61,43.08,797.91,59.6,797.91,81.56Zm-15.75-9C779.48,64.15,771.53,58,763,58a21.76,21.76,0,0,0-20.49,14.6ZM682.8,43.19c-9.75,0-15.23,4-18.9,6.91V47.34a2.9,2.9,0,0,0-3.06-2.74h-10.2a3,3,0,0,0-3,3v67.83a3,3,0,0,0,3,3h10.68a3,3,0,0,0,3-3V68.56c3.75-4.44,8.51-9.54,17.89-9.54,5.42,0,9.11,2.44,12.33,6.61,2.12,2.74,4,6.28,4,15.92v33.88a3,3,0,0,0,3,3h10.73a3,3,0,0,0,3-3V82.3c0-11.91-1.58-20.28-6.63-26.73C702.17,47.25,693.44,43.19,682.8,43.19Zm-114,102a10.66,10.66,0,1,0,10.73,10.71A10.76,10.76,0,0,0,568.78,145.16Zm13.43-63.6c0,.32,0,1.17,0,2.09-.12,1.14-1.58,2-3.24,2H527.05A22.06,22.06,0,0,0,549,105.07c8.58,0,14-3.43,18.45-8a2.94,2.94,0,0,1,4.22-.15l6.66,6.34a3.18,3.18,0,0,1,.19,4.38c-4.7,5.16-13.9,12.35-29.68,12.35-21.73,0-38.18-16.52-38.18-38.44,0-22.29,15.18-38.48,36-38.48C566.93,43.08,582.21,59.6,582.21,81.56Zm-15.73-9c-2.7-8.42-10.63-14.6-19.16-14.6a21.68,21.68,0,0,0-20.46,14.6Zm93.95,144.06c0,.35,0,1.14,0,2.09,0,1.14-1.52,2.08-3.21,2.08h-51.9a22,22,0,0,0,21.92,19.34c8.57,0,14-3.45,18.45-8a3,3,0,0,1,4.23-.16l6.64,6.34a3.15,3.15,0,0,1,.26,4.36c-4.78,5.16-14,12.36-29.74,12.36-21.75,0-38.17-16.52-38.17-38.45,0-22.29,15.17-38.43,36-38.43C645.17,178.2,660.42,194.68,660.42,216.62Zm-15.75-9c-2.64-8.45-10.62-14.59-19.11-14.59a21.67,21.67,0,0,0-20.51,14.59Zm150.61-27.94H783.65a4.94,4.94,0,0,0-4.24,2.72l-18.62,42.84L740.38,182.4a5.21,5.21,0,0,0-4.32-2.66l-12.25,0a1.63,1.63,0,0,0-1.59,2.52l30,62.69L736.5,280.7a1.81,1.81,0,0,0,1.78,2.77h11.8a5.11,5.11,0,0,0,4.28-2.77l42.72-98.25C797.79,180.94,797,179.74,795.28,179.74Z"/></svg>