<?xml version="1.0" encoding="utf-8"?>
<!-- Generator: Adobe Illustrator 15.0.0, SVG Export Plug-In . SVG Version: 6.00 Build 0)  -->
<!DOCTYPE svg PUBLIC "-//W3C//DTD SVG 1.1//EN" "http://www.w3.org/Graphics/SVG/1.1/DTD/svg11.dtd">
<svg version="1.1" id="Layer_1" xmlns="http://www.w3.org/2000/svg" xmlns:xlink="http://www.w3.org/1999/xlink" x="0px" y="0px"
	 width="50px" height="50px" viewBox="0 0 50 50" enable-background="new 0 0 50 50" xml:space="preserve">
<path d="M11.312,13.627c3.455-1.062,4.075-3.632,7.617-4.517c3.543-0.887-2.213-8.238-3.249-8.328
	C13.88-0.634,5.11,0.193,5.554,7.251C6.115,16.19,11.312,13.627,11.312,13.627z"/>
<path d="M42.211,16.801c-3.165-1.75-3.244-4.391-6.529-5.984c-3.289-1.593,3.856-7.609,4.887-7.483
	c2.053-1.019,10.464,1.591,8.586,8.406C46.77,20.374,42.211,16.801,42.211,16.801z"/>
<path d="M20.436,30.281c0.796-0.354,0.443-7.707-6.201-5.669c-6.644,2.038-3.72,10.274-2.923,10.54c0.798,0.266,1.594,2.57,5.137,0
	C19.993,32.584,17.867,31.875,20.436,30.281z"/>
<path d="M28.497,32.102c-0.703-0.518,1.236-7.618,7.28-4.188c6.044,3.428,1.406,10.838,0.568,10.923
	c-0.835,0.087-2.112,2.162-5.016-1.112C28.43,34.448,30.658,34.215,28.497,32.102z"/>
<path d="M22.838,44.948c0.744-0.788,3.543-0.573,4.385-2.085c1.138-2.286-8.46-4.066-9.181-1.246c0.681,1.554,3.302,2.222,4.022,3.3
	C22.5,45.571,22.455,45.174,22.838,44.948z"/>
<path stroke="#000000" stroke-miterlimit="10" d="M13.967,43.535c2.132,1.958,3.123,3.704,4.075,4.026
	c2.196,0.741,4.762,1.359,8.175,1.464c1.049,0.031,1.695-0.236,2.498-0.774c0.807-0.544,1.303-1.899,2.152-2.156
	c0.85-0.251,17.942,0.13,15.794-19.113c0.011,18.71-14.903,17.233-16.4,17.855c-1.498,0.62-1.814,2.558-2.943,2.785
	c-0.325,0.065-1.497,0.646-2.351-0.091c-2.616-2.257-5.307-0.404-6.924-0.854c-1.732-0.652-2.525-3.954-3.226-3.954
	c-20.808-8.104-8.034-27.408-8.034-27.408l-1.33-1.662C5.452,13.653-8.914,34.646,13.967,43.535z"/>
</svg>
